<?xml version="1.0" standalone="no"?>
<!DOCTYPE svg PUBLIC "-//W3C//DTD SVG 1.1//EN" "http://www.w3.org/Graphics/SVG/1.1/DTD/svg11.dtd" >
<svg xmlns="http://www.w3.org/2000/svg" xmlns:xlink="http://www.w3.org/1999/xlink" version="1.1">
<metadata>
Created by FontForge 20201107 at Sat Jul 17 11:20:45 2021
 By 
Copyright 2017-2021 Indian Type Foundry. All rights reserved.
</metadata>
<defs>
<font id="GeneralSansVariable-Bold" horiz-adv-x="500" >
  <font-face 
    font-family="General Sans Variable"
    font-weight="700"
    font-stretch="normal"
    units-per-em="1000"
    panose-1="0 0 0 0 0 0 0 0 0 0"
    ascent="800"
    descent="-200"
    x-height="538"
    cap-height="718"
    bbox="-139 -238.909 1594 1010"
    underline-thickness="50"
    underline-position="-105"
    unicode-range="U+000D-FB02"
  />
<missing-glyph horiz-adv-x="740" 
 />
    <glyph glyph-name="fi" unicode="fi" horiz-adv-x="704" 
d="M279 0h-171v389h-100v149h100v19q0 83 45 128t135 45q29 0 53.5 -5t43.5 -13v-135q-10 5 -25 7.5t-29 2.5q-22 0 -37 -7.5t-15 -26.5v-15h132v-149h-132v-389zM648 0h-171v538h171v-538zM671 663q0 -42 -30.5 -69.5t-79.5 -27.5t-79.5 27.5t-30.5 69.5q0 43 30.5 70.5
t79.5 27.5t79.5 -27.5t30.5 -70.5z" />
    <glyph glyph-name="fl" unicode="fl" horiz-adv-x="706" 
d="M279 0h-171v389h-100v149h100v19q0 83 45 128t135 45q29 0 53.5 -5t43.5 -13v-135q-10 5 -25 7.5t-29 2.5q-22 0 -37 -7.5t-15 -26.5v-15h132v-149h-132v-389zM650 0h-173v718h173v-718z" />
    <glyph glyph-name=".notdef" horiz-adv-x="740" 
 />
    <glyph glyph-name=".null" horiz-adv-x="0" 
 />
    <glyph glyph-name=".null" horiz-adv-x="0" 
 />
    <glyph glyph-name="nonmarkingreturn" horiz-adv-x="333" 
 />
    <glyph glyph-name="CR" unicode="&#xd;" horiz-adv-x="280" 
 />
    <glyph glyph-name="space" unicode=" " horiz-adv-x="209" 
 />
    <glyph glyph-name="exclam" unicode="!" horiz-adv-x="303" 
d="M215 234h-129l-45 484h220zM263 100q0 -46 -32 -75.5t-80 -29.5t-79.5 29.5t-31.5 75.5t31 76t80 30q50 0 81 -30t31 -76z" />
    <glyph glyph-name="quotedbl" unicode="&#x22;" horiz-adv-x="474" 
d="M195 415h-134l-10 303h154zM413 415h-134l-10 303h154z" />
    <glyph glyph-name="numbersign" unicode="#" horiz-adv-x="660" 
d="M240 0h-130l30 168h-70v128h93l16 91h-69v130h92l28 159h130l-28 -159h61l28 159h129l-28 -159h68v-130h-91l-16 -91h67v-128h-90l-30 -168h-129l30 168h-61zM309 387l-16 -91h61l16 91h-61z" />
    <glyph glyph-name="dollar" unicode="$" horiz-adv-x="616" 
d="M356 -89h-110v84q-99 15 -158.5 75t-67.5 154h171q0 -44 30 -69.5t82 -25.5q30 0 53 7.5t36 22.5t13 36q0 22 -20 37.5t-45 20.5l-112 24q-38 8 -71 22.5t-57.5 37t-38.5 55.5t-14 78q0 55 25 99.5t70 73.5t104 39v85h110v-85q64 -9 112.5 -39t77.5 -77t33 -109h-171
q-2 28 -15 48t-35 31.5t-51 11.5q-24 0 -43.5 -7t-31 -21t-11.5 -37q0 -14 8.5 -25.5t23 -18.5t31.5 -11l110 -23q63 -13 106.5 -38.5t66 -63t22.5 -86.5q0 -63 -28 -111.5t-80.5 -77.5t-124.5 -36v-81z" />
    <glyph glyph-name="percent" unicode="%" horiz-adv-x="1134" 
d="M245 262q-64 0 -115.5 28.5t-81.5 76.5t-30 105q0 58 30 105.5t81.5 76t115.5 28.5t115.5 -28.5t81.5 -76t30 -105.5q0 -57 -30 -105t-81.5 -76.5t-115.5 -28.5zM245 383q24 0 44 9.5t32 29.5t12 50q0 31 -12 50.5t-32 29t-44 9.5q-23 0 -43.5 -9.5t-33 -29t-12.5 -50.5
q0 -30 12.5 -50t33 -29.5t43.5 -9.5zM431 0h-135l386 676h135zM889 -9q-64 0 -115.5 28.5t-81.5 76.5t-30 105q0 58 30 105.5t81.5 76t115.5 28.5t115.5 -28.5t81.5 -76t30 -105.5q0 -57 -30 -105t-81.5 -76.5t-115.5 -28.5zM889 112q24 0 44 9.5t32 29.5t12 50
q0 31 -12 50.5t-32 29t-44 9.5q-23 0 -43.5 -9.5t-33 -29t-12.5 -50.5q0 -30 12.5 -50t33 -29.5t43.5 -9.5z" />
    <glyph glyph-name="ampersand" unicode="&#x26;" horiz-adv-x="732" 
d="M458 363h157q0 -37 -11.5 -80t-30.5 -84t-44 -73q-52 -66 -112 -100.5t-129 -34.5q-77 0 -134 28t-88 78.5t-31 119.5q0 42 19 80.5t55 70.5t86 54l92 -107q-27 -5 -47 -17t-30.5 -30t-10.5 -41q0 -30 12 -51t35.5 -32.5t55.5 -11.5q43 0 77 23t54 65q11 22 18 63.5
t7 79.5zM357 398l383 -398h-212l-344 351q-21 22 -35 45.5t-21.5 49t-7.5 51.5q0 55 29 97.5t80.5 67t116.5 24.5t113 -24t74.5 -67t26.5 -102h-160q-2 19 -8.5 31t-18 18.5t-27.5 6.5q-14 0 -25.5 -6.5t-17.5 -18.5t-6 -28q0 -14 6.5 -28.5t19.5 -31t34 -38.5z" />
    <glyph glyph-name="quotesingle" unicode="'" horiz-adv-x="256" 
d="M195 415h-134l-10 303h154z" />
    <glyph glyph-name="parenleft" unicode="(" horiz-adv-x="325" 
d="M335 -193h-173q-61 94 -94 213t-33 243t33 242.5t94 212.5h173q-61 -94 -91.5 -212.5t-30.5 -242.5t30.5 -243t91.5 -213z" />
    <glyph glyph-name="parenright" unicode=")" horiz-adv-x="325" 
d="M163 -193h-173q62 94 92 213t30 243t-30 242.5t-92 212.5h173q62 -94 94.5 -212.5t32.5 -242.5t-32.5 -243t-94.5 -213z" />
    <glyph glyph-name="asterisk" unicode="*" 
d="M250 415l-83 -111l-101 73l85 104l-126 42l36 114l130 -48l-7 129h132l-7 -129l130 48l36 -114l-126 -42l85 -104l-101 -73z" />
    <glyph glyph-name="plus" unicode="+" horiz-adv-x="660" 
d="M411 100h-162v169h-169v150h169v169h162v-169h169v-150h-169v-169z" />
    <glyph glyph-name="comma" unicode="," horiz-adv-x="265" 
d="M241 64q0 -71 -35.5 -121.5t-94 -77.5t-128.5 -27v89q61 0 100 24t46 67q-7 -1 -11 -1.5t-9 -0.5q-38 0 -64 28t-26 67q0 46 30 74t74 28q54 0 86 -36.5t32 -112.5z" />
    <glyph glyph-name="hyphen" unicode="-" horiz-adv-x="360" 
d="M330 197h-300v154h300v-154z" />
    <glyph glyph-name="period" unicode="." horiz-adv-x="265" 
d="M241 104q0 -48 -30 -78.5t-78 -30.5t-78.5 30.5t-30.5 78.5q0 49 30.5 79.5t78.5 30.5t78 -30.5t30 -79.5z" />
    <glyph glyph-name="slash" unicode="/" horiz-adv-x="516" 
d="M123 -193h-170l440 911h170z" />
    <glyph glyph-name="zero" unicode="0" horiz-adv-x="630" 
d="M43 337q0 168 71 258.5t201 90.5t201 -90.5t71 -258.5q0 -167 -70.5 -257t-201.5 -90t-201.5 90t-70.5 257zM220 337q0 -94 24 -143.5t71 -49.5q46 0 70.5 49.5t24.5 143.5q0 95 -24.5 145t-70.5 50t-70.5 -50.5t-24.5 -144.5z" />
    <glyph glyph-name="one" unicode="1" horiz-adv-x="384" 
d="M318 0h-173v527h-125v149h298v-676z" />
    <glyph glyph-name="two" unicode="2" horiz-adv-x="581" 
d="M547 154v-154h-503v98l201 194q38 37 62 64t36 51t12 52q0 23 -9 39.5t-26 25t-42 8.5q-28 0 -48 -10.5t-30.5 -30.5t-10.5 -49h-167q0 72 34 127t93.5 86t137.5 31q71 0 127 -27t88.5 -73t32.5 -105q0 -42 -13 -77.5t-46.5 -77t-96.5 -102.5l-72 -70h240z" />
    <glyph glyph-name="three" unicode="3" horiz-adv-x="580" 
d="M283 -9q-76 0 -135 27.5t-92.5 76t-33.5 110.5h168q3 -37 28 -58t67 -21q45 0 69.5 20t24.5 57q0 36 -29.5 55.5t-84.5 19.5h-76v135h66q31 0 51.5 8t31.5 23.5t11 37.5q0 33 -19.5 51t-55.5 18q-34 0 -54 -21t-20 -58h-167q0 61 33 109.5t90 76.5t127 28
q76 0 130.5 -24.5t83.5 -67t29 -98.5q0 -43 -24 -78t-70 -62q60 -21 92 -58.5t32 -90.5q0 -64 -34.5 -113t-95.5 -76t-143 -27z" />
    <glyph glyph-name="four" unicode="4" horiz-adv-x="612" 
d="M594 120h-97v-120h-171v120h-318v129l349 427h140v-406h97v-150zM194 270h132v166z" />
    <glyph glyph-name="five" unicode="5" horiz-adv-x="585" 
d="M296 -10q-76 0 -137.5 29t-97.5 79.5t-39 115.5h173q7 -35 33.5 -52.5t66.5 -17.5q36 0 55.5 13t27 32t7.5 37q0 19 -8.5 38t-29.5 32.5t-59 13.5q-36 0 -62 -15t-37 -47l-143 48l60 380h416v-154h-291l-14 -87q23 11 49 16.5t52 5.5q86 0 140 -34t79.5 -87.5
t25.5 -110.5q0 -41 -16 -82.5t-49 -76t-83 -55.5t-119 -21z" />
    <glyph glyph-name="six" unicode="6" horiz-adv-x="592" 
d="M295 -8q-81 0 -142.5 31.5t-96 83t-34.5 111.5q0 42 8 76t27 68t53 74l204 240h194l-190 -227h5.5h5.5q72 0 126.5 -28.5t84.5 -78t30 -112.5q0 -65 -34.5 -119.5t-96.5 -86.5t-144 -32zM297 136q24 0 45.5 9t35 28.5t13.5 50.5q0 33 -13.5 52.5t-35 28.5t-45.5 9
q-36 0 -65.5 -20.5t-29.5 -69.5q0 -31 14 -50.5t35.5 -28.5t45.5 -9z" />
    <glyph glyph-name="seven" unicode="7" horiz-adv-x="527" 
d="M509 575l-241 -575h-184l234 522h-300v154h491v-101z" />
    <glyph glyph-name="eight" unicode="8" horiz-adv-x="591" 
d="M567 201q0 -60 -33.5 -107.5t-94 -75t-142.5 -27.5q-83 0 -144.5 27.5t-95 75t-33.5 107.5q0 51 29 88.5t75 61.5q-37 23 -60 56t-23 79q0 57 31 102t87.5 71.5t133.5 26.5q76 0 132 -26.5t87 -71.5t31 -102q0 -46 -23 -79t-60 -56q45 -24 74 -61.5t29 -88.5zM222 480
q0 -29 19.5 -46.5t55.5 -17.5q35 0 54 17.5t19 46.5q0 33 -19 52t-54 19q-36 0 -55.5 -19t-19.5 -52zM202 205q0 -24 11 -42t32 -27.5t52 -9.5q30 0 51 9.5t32 27.5t11 42q0 22 -11 39t-32 27t-51 10q-31 0 -52 -10t-32 -27t-11 -39z" />
    <glyph glyph-name="nine" unicode="9" horiz-adv-x="592" 
d="M297 684q81 0 142.5 -31.5t96 -83t34.5 -111.5q0 -41 -8 -75.5t-27 -68.5t-53 -74l-204 -240h-194l190 227h-5.5h-5.5q-72 0 -126 28.5t-84.5 78t-30.5 112.5q0 66 34.5 120t96.5 86t144 32zM295 540q-24 0 -45.5 -9t-35 -28.5t-13.5 -50.5q0 -32 13.5 -52t35 -29
t45.5 -9q36 0 65.5 20.5t29.5 69.5q0 31 -14 50.5t-35.5 28.5t-45.5 9z" />
    <glyph glyph-name="colon" unicode=":" horiz-adv-x="265" 
d="M241 104q0 -48 -30 -78.5t-78 -30.5t-78.5 30.5t-30.5 78.5q0 49 30.5 79.5t78.5 30.5t78 -30.5t30 -79.5zM241 430q0 -48 -30 -78.5t-78 -30.5t-78.5 30.5t-30.5 78.5q0 49 30.5 79.5t78.5 30.5t78 -30.5t30 -79.5z" />
    <glyph glyph-name="semicolon" unicode=";" horiz-adv-x="265" 
d="M241 430q0 -48 -30 -78.5t-78 -30.5t-78.5 30.5t-30.5 78.5q0 49 30.5 79.5t78.5 30.5t78 -30.5t30 -79.5zM241 64q0 -71 -35.5 -121.5t-94 -77.5t-128.5 -27v89q61 0 100 24t46 67q-7 -1 -11 -1.5t-9 -0.5q-38 0 -64 28t-26 67q0 46 30 74t74 28q54 0 86 -36.5
t32 -112.5z" />
    <glyph glyph-name="less" unicode="&#x3c;" horiz-adv-x="660" 
d="M80 406l500 196v-149l-328 -115l328 -115v-149l-500 196v136z" />
    <glyph glyph-name="equal" unicode="=" horiz-adv-x="660" 
d="M580 393h-500v150h500v-150zM580 145h-500v150h500v-150z" />
    <glyph glyph-name="greater" unicode="&#x3e;" horiz-adv-x="660" 
d="M580 270l-500 -196v149l328 115l-328 115v149l500 -196v-136z" />
    <glyph glyph-name="question" unicode="?" horiz-adv-x="555" 
d="M376 100q0 -46 -32 -75.5t-81 -29.5t-81.5 29.5t-32.5 75.5t32 76t82 30t81.5 -30t31.5 -76zM178 503h-160q3 67 38.5 117.5t95 79t133.5 28.5t131 -25t89 -69.5t32 -103.5q0 -39 -23.5 -76t-66.5 -71l-78 -61q-22 -18 -32.5 -32.5t-11.5 -27.5t4 -28h-109
q-17 30 -24.5 56.5t1 52t37.5 49.5l73 61q19 16 29 30t10 34q0 28 -21 43.5t-59 15.5q-37 0 -60 -20t-28 -53z" />
    <glyph glyph-name="at" unicode="@" horiz-adv-x="986" 
d="M766 5v-141q-56 -31 -123.5 -49t-142.5 -18q-100 0 -186 34.5t-150.5 95.5t-100 141.5t-35.5 172.5q0 93 36.5 173.5t102 141.5t153 95.5t190.5 34.5q96 0 178 -30t142.5 -81t94 -116.5t33.5 -137.5q0 -84 -32.5 -147t-87 -98t-122.5 -35q-60 0 -93.5 19t-51.5 41
q-52 -60 -137 -60q-51 0 -89.5 24t-59.5 67t-21 100q0 63 23 115.5t64.5 83.5t97.5 31q32 0 56.5 -8.5t44.5 -27.5l4 22h153l-30 -191q-1 -9 -2.5 -20.5t-1.5 -17.5q0 -23 14 -35.5t37 -12.5q42 0 61.5 37t19.5 97q0 45 -19.5 89.5t-57.5 81t-92.5 58.5t-125.5 22
q-72 0 -132.5 -24.5t-105 -67.5t-68.5 -100t-24 -123q0 -65 23.5 -122t66.5 -100t101.5 -67.5t128.5 -24.5q86 0 155 23.5t111 54.5zM426 241q0 -30 12 -50t33 -20q15 0 26 11.5t17 31t6 43.5q0 36 -9 55.5t-30 19.5t-33 -14t-17 -34.5t-5 -42.5z" />
    <glyph glyph-name="A" unicode="A" horiz-adv-x="748" 
d="M216 282h305l49 -149h-404zM538 0l-168 510l-173 -510h-191l266 718h207l263 -718h-204z" />
    <glyph glyph-name="B" unicode="B" horiz-adv-x="658" 
d="M634 216q0 -101 -71 -158.5t-196 -57.5h-297v718h288q118 0 186.5 -50t68.5 -144q0 -47 -24 -84t-69 -64q55 -23 84.5 -63t29.5 -97zM343 569h-102v-124h102q47 0 69.5 17t22.5 46q0 28 -22.5 44.5t-69.5 16.5zM352 296h-111v-147h111q53 0 78.5 20t25.5 54
q0 33 -25.5 53t-78.5 20z" />
    <glyph glyph-name="C" unicode="C" horiz-adv-x="793" 
d="M393 -15q-76 0 -142.5 28.5t-116.5 80t-78 119.5t-28 147t28 146.5t78 118.5t116.5 79.5t142.5 28.5q99 0 179 -40.5t131 -113t62 -167.5h-200q-7 45 -31 79.5t-59.5 53.5t-79.5 19q-40 0 -72 -14.5t-54.5 -41.5t-34.5 -64.5t-12 -83.5t12 -84t34.5 -65t54.5 -42t72 -15
q44 0 79.5 19.5t59 54t31.5 79.5h200q-12 -96 -63 -168.5t-130.5 -113t-178.5 -40.5z" />
    <glyph glyph-name="D" unicode="D" horiz-adv-x="748" 
d="M350 0h-280v718h280q114 0 197 -45t128 -125t45 -185q0 -104 -46 -186.5t-129.5 -129.5t-194.5 -47zM259 555v-392h80q63 0 104.5 22t62 66.5t20.5 111.5q0 64 -21 106.5t-62.5 64t-103.5 21.5h-80z" />
    <glyph glyph-name="E" unicode="E" horiz-adv-x="616" 
d="M578 164v-164h-508v718h501v-164h-312v-103h283v-164h-283v-123h319z" />
    <glyph glyph-name="F" unicode="F" horiz-adv-x="589" 
d="M259 0h-189v718h489v-164h-300v-133h251v-164h-251v-257z" />
    <glyph glyph-name="G" unicode="G" horiz-adv-x="796" 
d="M401 -15q-78 0 -146 27.5t-119 77.5t-79.5 119.5t-28.5 153.5q0 80 27.5 147t77 117.5t116.5 78t146 27.5q90 0 163 -32.5t124 -92t76 -140.5h-224q-9 28 -29 49.5t-49 34t-66 12.5q-46 0 -84.5 -22t-61 -67.5t-22.5 -116.5q0 -60 20 -108t62 -76.5t107 -28.5
q41 0 71.5 14t51.5 38t31 54h-173v149h375q6 -89 -17 -164.5t-71 -132t-118.5 -87.5t-159.5 -31z" />
    <glyph glyph-name="H" unicode="H" horiz-adv-x="783" 
d="M259 0h-189v718h189v-267h265v267h189v-718h-189v287h-265v-287z" />
    <glyph glyph-name="I" unicode="I" horiz-adv-x="329" 
d="M259 0h-189v718h189v-718z" />
    <glyph glyph-name="J" unicode="J" horiz-adv-x="648" 
d="M583 718v-450q0 -80 -32 -144t-96 -101.5t-161 -37.5q-96 0 -160 37.5t-96.5 101.5t-32.5 144h190q0 -32 7 -58t28.5 -41t63.5 -15t63.5 15t28.5 40.5t7 55.5v453h190z" />
    <glyph glyph-name="K" unicode="K" horiz-adv-x="711" 
d="M259 0h-189v718h189v-302l224 302h215l-253 -337l260 -381h-230l-216 324v-324z" />
    <glyph glyph-name="L" unicode="L" horiz-adv-x="591" 
d="M561 0h-491v718h189v-547h302v-171z" />
    <glyph glyph-name="M" unicode="M" horiz-adv-x="947" 
d="M395 0l-154 414v-414h-171v718h223l181 -487l180 487h223v-718h-171v419l-155 -419h-156z" />
    <glyph glyph-name="N" unicode="N" horiz-adv-x="781" 
d="M529 0l-286 448v-448h-173v718h203l265 -415v415h173v-718h-182z" />
    <glyph glyph-name="O" unicode="O" horiz-adv-x="797" 
d="M398 -15q-78 0 -145 27.5t-117.5 78t-79 119t-28.5 150.5t28.5 150t79 118t117.5 77.5t145 27.5t145.5 -27.5t118 -77.5t79 -118t28.5 -150t-28.5 -150.5t-79 -119t-118 -78t-145.5 -27.5zM398 154q42 0 75 16t55.5 44.5t34 66t11.5 79.5t-11.5 79t-34 65t-55.5 44
t-75 16t-75 -16t-55.5 -44t-34 -65t-11.5 -79t11.5 -79.5t34 -66t55.5 -44.5t75 -16z" />
    <glyph glyph-name="P" unicode="P" horiz-adv-x="677" 
d="M350 219h-91v-219h-189v718h280q94 0 161.5 -27.5t103.5 -82t36 -135.5t-36 -137.5t-103.5 -86.5t-161.5 -30zM349 559h-90v-181h90q56 0 85 26t29 67q0 42 -29 65t-85 23z" />
    <glyph glyph-name="Q" unicode="Q" horiz-adv-x="797" 
d="M398 -15q-78 0 -145 27.5t-117.5 78t-79 119t-28.5 150.5t28.5 150t79 118t117.5 77.5t145 27.5t145.5 -27.5t118 -77.5t79 -118t28.5 -150t-28.5 -150.5t-79 -119t-118 -78t-145.5 -27.5zM398 154q42 0 75 16t55.5 44.5t34 66t11.5 79.5t-11.5 79t-34 65t-55.5 44
t-75 16t-75 -16t-55.5 -44t-34 -65t-11.5 -79t11.5 -79.5t34 -66t55.5 -44.5t75 -16zM553 137l170 -319h-189l-148 271z" />
    <glyph glyph-name="R" unicode="R" horiz-adv-x="708" 
d="M259 0h-189v718h294q146 0 225.5 -62.5t79.5 -177.5q0 -69 -39.5 -123.5t-112.5 -85.5l176 -269h-225l-147 239h-62v-239zM259 562v-167h97q63 0 93 20t30 63t-30 63.5t-93 20.5h-97z" />
    <glyph glyph-name="S" unicode="S" horiz-adv-x="672" 
d="M645 235q0 -74 -37.5 -129t-105.5 -85.5t-162 -30.5q-93 0 -162.5 31.5t-110 89.5t-47.5 137h191q2 -51 34.5 -81t90.5 -30q33 0 57 8t37.5 24t13.5 38q0 23 -20.5 39.5t-52.5 22.5l-131 25q-43 8 -78 25t-60.5 42.5t-39 60t-13.5 77.5q0 67 36 118.5t99 80.5t144 29
q86 0 152.5 -31t107 -87.5t45.5 -134.5h-191q-2 33 -17 57t-39 37t-56 13q-28 0 -48 -9t-31 -24.5t-11 -35.5q0 -16 9.5 -27.5t25.5 -19t35 -11.5l139 -27q96 -19 146 -66.5t50 -125.5z" />
    <glyph glyph-name="T" unicode="T" horiz-adv-x="659" 
d="M424 0h-189v547h-220v171h629v-171h-220v-547z" />
    <glyph glyph-name="U" unicode="U" horiz-adv-x="759" 
d="M691 718v-432q0 -87 -35.5 -155t-105 -107t-170.5 -39q-102 0 -171.5 39t-105 107t-35.5 155v432h189v-435q0 -37 11 -66.5t37.5 -46t74.5 -16.5t74.5 16.5t37 46t10.5 66.5v435h189z" />
    <glyph glyph-name="V" unicode="V" horiz-adv-x="718" 
d="M717 718l-256 -718h-206l-254 718h205l158 -497l163 497h190z" />
    <glyph glyph-name="W" unicode="W" horiz-adv-x="992" 
d="M613 0l-117 447l-117 -447h-191l-182 718h185l97 -428l114 428h191l110 -430l98 430h185l-183 -718h-190z" />
    <glyph glyph-name="X" unicode="X" horiz-adv-x="752" 
d="M239 0h-223l220 366l-194 352h220l119 -237l130 237h211l-202 -359l216 -359h-224l-136 247z" />
    <glyph glyph-name="Y" unicode="Y" horiz-adv-x="701" 
d="M444 270v-270h-189v270l-251 448h204l148 -275l151 275h190z" />
    <glyph glyph-name="Z" unicode="Z" horiz-adv-x="665" 
d="M627 0h-585v151l343 404h-347v163h579v-154l-345 -401h355v-163z" />
    <glyph glyph-name="bracketleft" unicode="[" horiz-adv-x="333" 
d="M327 -193h-275v911h275v-149h-96v-613h96v-149z" />
    <glyph glyph-name="backslash" unicode="\" horiz-adv-x="516" 
d="M563 -193h-170l-440 911h170z" />
    <glyph glyph-name="bracketright" unicode="]" horiz-adv-x="333" 
d="M281 -193h-275v149h96v613h-96v149h275v-911z" />
    <glyph glyph-name="asciicircum" unicode="^" horiz-adv-x="661" 
d="M449 274l-118 234l-119 -234h-175l210 402h168l209 -402h-175z" />
    <glyph glyph-name="underscore" unicode="_" 
d="M500 -193h-500v149h500v-149z" />
    <glyph glyph-name="grave" unicode="`" 
d="M398 571h-176l-121 162h198z" />
    <glyph glyph-name="a" unicode="a" horiz-adv-x="560" 
d="M371 0v52q-28 -32 -65 -47t-89 -15q-84 0 -135.5 46.5t-51.5 122.5q0 79 62 120.5t177 41.5q22 0 42 -1.5t37 -4.5v26q0 35 -19.5 54t-55.5 19q-35 0 -55.5 -19t-25.5 -54h-154q5 63 36 109.5t82.5 72t117.5 25.5q111 0 173 -57t62 -159v-332h-138zM191 164
q0 -26 17.5 -41t48.5 -15q43 0 67 19t24 52v34q-19 4 -35 5.5t-33 1.5q-43 0 -66 -14t-23 -42z" />
    <glyph glyph-name="b" unicode="b" horiz-adv-x="635" 
d="M613 269q0 -77 -30 -140.5t-83.5 -101t-126.5 -37.5q-47 0 -87 18.5t-73 52.5v-61h-157v718h171v-230q32 30 68 45t78 15q73 0 126.5 -37t83.5 -100.5t30 -141.5zM435 269q0 65 -32 95t-71 30q-26 0 -49.5 -13t-38.5 -40.5t-15 -70.5q0 -42 14.5 -70t38.5 -42t50 -14
q39 0 71 31t32 94z" />
    <glyph glyph-name="c" unicode="c" horiz-adv-x="588" 
d="M293 -10q-80 0 -141 35.5t-95.5 98.5t-34.5 145q0 80 35.5 143t97 99.5t138.5 36.5q74 0 133 -31.5t96 -87.5t44 -131h-182q-2 44 -26.5 70t-63.5 26q-30 0 -51 -15t-32.5 -42.5t-11.5 -67.5t11 -68.5t32.5 -43t51.5 -14.5q40 0 63.5 25.5t26.5 71.5h182q-7 -77 -43 -133
t-94.5 -86.5t-135.5 -30.5z" />
    <glyph glyph-name="d" unicode="d" horiz-adv-x="635" 
d="M22 269q0 78 30 141.5t84 100.5t126 37q42 0 78.5 -15t67.5 -45v230h171v-718h-157v61q-33 -34 -73 -52.5t-87 -18.5q-72 0 -126 37.5t-84 101t-30 140.5zM200 269q0 -63 32 -94t71 -31q27 0 50.5 14t38 42t14.5 70q0 43 -15 70.5t-38.5 40.5t-49.5 13q-39 0 -71 -30
t-32 -95z" />
    <glyph glyph-name="e" unicode="e" horiz-adv-x="591" 
d="M299 -9q-83 0 -145.5 35t-97 98t-34.5 146q0 81 35.5 143.5t98 98.5t142.5 36q67 0 121 -25t90.5 -69.5t51.5 -103t3 -124.5h-439v107h256q-1 41 -25 65t-62 24q-33 0 -54.5 -16.5t-32.5 -50.5t-11 -86q0 -48 11 -80.5t33 -48.5t55 -16q36 0 60 15t35 44h171
q-25 -92 -93 -142t-169 -50z" />
    <glyph glyph-name="f" unicode="f" horiz-adv-x="421" 
d="M279 0h-171v389h-100v149h100v19q0 83 45 128t135 45q29 0 53.5 -5t43.5 -13v-135q-10 5 -25 7.5t-29 2.5q-22 0 -37 -7.5t-15 -26.5v-15h132v-149h-132v-389z" />
    <glyph glyph-name="g" unicode="g" horiz-adv-x="619" 
d="M296 -203q-74 0 -131 25.5t-90 72.5t-36 109h166q5 -36 27.5 -55t62.5 -19q48 0 72.5 25t24.5 74v63q-21 -30 -57 -47t-80 -17q-65 0 -118 34.5t-84 93.5t-31 132q0 76 29 134.5t80 92t117 33.5q51 0 89 -15.5t69 -49.5v55h157v-507q0 -109 -71.5 -171.5t-195.5 -62.5z
M195 287q0 -50 26 -80t69 -30q30 0 52.5 14t35 39t12.5 58q0 50 -27.5 80.5t-72.5 30.5q-43 0 -69 -30.5t-26 -81.5z" />
    <glyph glyph-name="h" unicode="h" horiz-adv-x="605" 
d="M227 283v-283h-171v718h171v-238q29 32 62 50t84 18q80 0 130.5 -52t50.5 -150v-346h-171v289q0 51 -18.5 78t-57.5 27q-21 0 -39.5 -11t-29.5 -35t-11 -65z" />
    <glyph glyph-name="i" unicode="i" horiz-adv-x="283" 
d="M227 0h-171v538h171v-538zM250 663q0 -42 -30.5 -69.5t-79.5 -27.5t-79.5 27.5t-30.5 69.5q0 43 30.5 70.5t79.5 27.5t79.5 -27.5t30.5 -70.5z" />
    <glyph glyph-name="j" unicode="j" horiz-adv-x="282" 
d="M226 538v-511q0 -82 -26.5 -133t-72 -74t-103.5 -23q-20 0 -40 2t-40 9v161q11 -7 26 -10t32 -3q23 0 38 16.5t15 59.5v506h171zM249 663q0 -42 -30.5 -69.5t-79.5 -27.5t-79.5 27.5t-30.5 69.5q0 43 30.5 70.5t79.5 27.5t79.5 -27.5t30.5 -70.5z" />
    <glyph glyph-name="k" unicode="k" horiz-adv-x="621" 
d="M227 0h-171v718h171v-398l167 218h197l-199 -255l227 -283h-218l-174 245v-245z" />
    <glyph glyph-name="l" unicode="l" horiz-adv-x="285" 
d="M229 0h-173v718h173v-718z" />
    <glyph glyph-name="m" unicode="m" horiz-adv-x="926" 
d="M227 0h-171v538h157v-66q31 36 67 56t88 20q51 0 90.5 -21t61.5 -62q35 39 74.5 61t98.5 22q80 0 131 -52t51 -150v-346h-171v293q0 47 -18.5 74t-55.5 27q-21 0 -39 -10.5t-29 -33t-11 -58.5v-292h-171v293q0 47 -18.5 74t-55.5 27q-22 0 -40 -10.5t-28.5 -33
t-10.5 -58.5v-292z" />
    <glyph glyph-name="n" unicode="n" horiz-adv-x="605" 
d="M227 283v-283h-171v538h157v-65q32 35 70.5 55t89.5 20q80 0 130.5 -52t50.5 -150v-346h-171v289q0 51 -18.5 78t-57.5 27q-21 0 -39.5 -11t-29.5 -35t-11 -65z" />
    <glyph glyph-name="o" unicode="o" horiz-adv-x="606" 
d="M303 -10q-60 0 -111 21.5t-89 60t-59.5 89t-21.5 108.5t21.5 108.5t59.5 89t89 60t111 21.5t111 -21.5t89 -60t59.5 -89t21.5 -108.5t-21.5 -108.5t-59.5 -89t-89 -60t-111 -21.5zM303 143q27 0 50.5 14t38 42t14.5 70t-14.5 70t-38 41.5t-50.5 13.5q-26 0 -50 -13.5
t-38.5 -41.5t-14.5 -70t14.5 -70t38.5 -42t50 -14z" />
    <glyph glyph-name="p" unicode="p" horiz-adv-x="635" 
d="M613 269q0 -78 -30 -141t-83.5 -100.5t-126.5 -37.5q-42 0 -78 15t-68 45v-243h-171v731h157v-61q33 35 73 53t87 18q73 0 126.5 -37.5t83.5 -101t30 -140.5zM435 269q0 63 -32 94t-71 31q-26 0 -50 -14t-38.5 -41.5t-14.5 -70.5t15 -70.5t38.5 -40.5t49.5 -13
q39 0 71 30.5t32 94.5z" />
    <glyph glyph-name="q" unicode="q" horiz-adv-x="635" 
d="M22 269q0 77 30 140.5t84 101t126 37.5q47 0 87 -18t73 -53v61h157v-731h-171v243q-31 -30 -67.5 -45t-78.5 -15q-72 0 -126 37.5t-84 100.5t-30 141zM200 269q0 -64 32 -94.5t71 -30.5q26 0 49.5 13t38.5 40.5t15 70.5q0 64 -31.5 95t-71.5 31q-39 0 -71 -31t-32 -94z
" />
    <glyph glyph-name="r" unicode="r" horiz-adv-x="435" 
d="M227 248v-248h-171v538h157v-95q31 47 89.5 73t122.5 26v-178q-60 6 -104.5 1.5t-69 -31t-24.5 -86.5z" />
    <glyph glyph-name="s" unicode="s" horiz-adv-x="560" 
d="M533 183q0 -89 -64 -141t-186 -52q-121 0 -187 53.5t-74 146.5h164q0 -34 28 -54t72 -20q29 0 51.5 8t22.5 29q0 18 -13.5 27t-41.5 14l-106 19q-70 13 -112 53t-42 105q0 52 28 92t79.5 62.5t121.5 22.5q71 0 125 -23.5t86.5 -67.5t37.5 -104h-164q-3 32 -26 50.5
t-58 18.5q-30 0 -48 -8.5t-18 -26.5q0 -17 13 -24t38 -12l114 -21q78 -14 118.5 -51.5t40.5 -95.5z" />
    <glyph glyph-name="t" unicode="t" horiz-adv-x="441" 
d="M417 168v-149q-28 -16 -57 -22.5t-65 -6.5q-60 0 -103 23t-66 67t-23 105v204h-100v149h100v158h171v-158h147v-149h-147v-164q0 -39 17 -57.5t52 -18.5q21 0 40.5 5t33.5 14z" />
    <glyph glyph-name="u" unicode="u" horiz-adv-x="602" 
d="M375 231v307h171v-538h-157v58q-22 -30 -62.5 -49t-87.5 -19q-53 0 -96 22.5t-67.5 69t-24.5 117.5v339h171v-307q0 -44 20.5 -66t56.5 -22q17 0 34.5 9.5t29.5 29t12 49.5z" />
    <glyph glyph-name="v" unicode="v" horiz-adv-x="568" 
d="M573 538l-193 -538h-190l-195 538h186l108 -344l110 344h174z" />
    <glyph glyph-name="w" unicode="w" horiz-adv-x="820" 
d="M493 0l-83 305l-83 -305h-171l-151 538h167l75 -295l79 295h171l75 -295l75 295h168l-152 -538h-170z" />
    <glyph glyph-name="x" unicode="x" horiz-adv-x="609" 
d="M204 0h-192l174 273l-162 265h199l90 -171l90 171h181l-159 -272l172 -266h-195l-101 176z" />
    <glyph glyph-name="y" unicode="y" horiz-adv-x="568" 
d="M573 538l-256 -731h-187l75 199l-210 532h186l116 -333l104 333h172z" />
    <glyph glyph-name="z" unicode="z" horiz-adv-x="553" 
d="M515 0h-471v141l251 247h-257v150h471v-144l-254 -244h260v-150z" />
    <glyph glyph-name="braceleft" unicode="{" horiz-adv-x="353" 
d="M6 189v149q41 0 60.5 17.5t19.5 55.5v128q0 88 54.5 135t156.5 47q11 0 24 -0.5t26 -2.5v-149q-8 2 -15 2.5t-14 0.5q-26 0 -39.5 -12.5t-13.5 -36.5v-135q0 -105 -99 -123q50 -11 74.5 -42t24.5 -84v-136q0 -25 14 -37.5t40 -12.5q6 0 13.5 1t14.5 2v-149l-26 -2t-25 -1
q-102 0 -156 47t-54 135v129q0 38 -19.5 56t-60.5 18z" />
    <glyph glyph-name="bar" unicode="|" horiz-adv-x="359" 
d="M266 -193h-173v911h173v-911z" />
    <glyph glyph-name="braceright" unicode="}" horiz-adv-x="353" 
d="M347 336v-149q-41 0 -60.5 -17.5t-19.5 -55.5v-128q0 -88 -54.5 -135t-156.5 -47q-11 0 -23.5 1t-26.5 2v149q8 -1 15 -2t14 -1q26 0 39.5 12.5t13.5 36.5v135q0 105 99 123q-50 11 -74.5 42.5t-24.5 83.5v136q0 25 -14 37.5t-40 12.5q-6 0 -13 -0.5t-15 -2.5v149
q14 2 26.5 2.5t24.5 0.5q102 0 156 -46.5t54 -135.5v-129q0 -38 19.5 -56t60.5 -18z" />
    <glyph glyph-name="asciitilde" unicode="~" horiz-adv-x="660" 
d="M451 229q-37 0 -70.5 11t-62.5 25t-52 25t-40 11q-20 0 -29 -16t-7 -60h-139q-12 67 5.5 119t58 81.5t95.5 29.5q36 0 69.5 -11t62.5 -25t53 -25t40 -11q21 0 29.5 16t6.5 60h139q13 -67 -5 -119t-58 -81.5t-96 -29.5z" />
    <glyph glyph-name="nbspace" unicode="&#xa0;" horiz-adv-x="209" 
 />
    <glyph glyph-name="exclamdown" unicode="&#xa1;" horiz-adv-x="303" 
d="M263 435q0 -46 -31 -75.5t-81 -29.5q-49 0 -80 29.5t-31 75.5t31.5 75.5t79.5 29.5t80 -29.5t32 -75.5zM262 -193h-220l45 494h129z" />
    <glyph glyph-name="cent" unicode="&#xa2;" horiz-adv-x="608" 
d="M354 -75h-110v71q-65 12 -115 50.5t-78.5 96t-28.5 126.5q0 70 28.5 127t78.5 95.5t115 50.5v86h110v-84q95 -15 158.5 -80.5t73.5 -165.5h-182q-1 27 -14 48.5t-35 34.5t-51 13q-31 0 -55 -15t-37 -43t-13 -67q0 -37 13 -65.5t37 -44.5t55 -16q29 0 51 13.5t35 35.5
t14 48h182q-7 -66 -38 -118t-81 -85t-113 -43v-69z" />
    <glyph glyph-name="sterling" unicode="&#xa3;" horiz-adv-x="617" 
d="M204 76q-19 0 -27.5 -16t-6.5 -60h-139q-13 70 9 123t68 78v98h-71v110h71v56q0 68 30.5 117.5t84.5 76.5t125 27q64 0 118 -23.5t88 -70.5t38 -119h-185q-4 34 -21 46.5t-43 12.5q-28 0 -45 -15.5t-17 -47.5v-60h149v-110h-149v-102q18 -10 34.5 -19.5t32.5 -16.5
t31.5 -11t30.5 -4q26 0 36.5 18t4.5 58h139q13 -67 -4.5 -119t-57.5 -81.5t-95 -29.5q-37 0 -71.5 12.5t-64 29.5t-53 29.5t-40.5 12.5z" />
    <glyph glyph-name="currency" unicode="&#xa4;" horiz-adv-x="660" 
d="M330 128q-25 0 -48 4.5t-44 13.5l-85 -85l-101 100l77 78q-13 22 -19.5 47t-6.5 52q0 54 26 100l-79 79l103 99l85 -85q21 8 44 12.5t48 4.5t48 -4.5t44 -12.5l85 85l103 -99l-79 -79q26 -46 26 -100q0 -27 -6.5 -52t-19.5 -47l77 -78l-101 -100l-85 85q-21 -9 -44 -13.5
t-48 -4.5zM330 249q35 0 61.5 21.5t26.5 67.5t-26.5 67.5t-61.5 21.5t-61.5 -21.5t-26.5 -67.5t26.5 -67.5t61.5 -21.5z" />
    <glyph glyph-name="yen" unicode="&#xa5;" horiz-adv-x="630" 
d="M594 119h-193v-119h-173v119h-192v110h192v25l-13 25h-179v110h124l-144 286h187l118 -253l120 253h173l-145 -286h125v-110h-180l-13 -25v-25h193v-110z" />
    <glyph glyph-name="brokenbar" unicode="&#xa6;" horiz-adv-x="356" 
d="M93 718h170v-398h-170v398zM93 205h170v-398h-170v398z" />
    <glyph glyph-name="section" unicode="&#xa7;" horiz-adv-x="590" 
d="M23 227q0 48 30 81.5t85 55.5q-37 23 -56.5 56t-19.5 80q0 57 29.5 98t80.5 63t115 22q72 0 125.5 -26t85 -71.5t36.5 -105.5h-169q-4 35 -25.5 55t-52.5 20q-28 0 -45 -14.5t-17 -35.5q0 -22 18 -36t49 -22l103 -28q89 -24 130.5 -63t41.5 -100q0 -51 -25.5 -89.5
t-78.5 -66.5q41 -20 59 -51t18 -74q0 -52 -30.5 -93t-83 -64.5t-119.5 -23.5q-118 0 -190 57.5t-80 151.5h169q2 -37 26.5 -59t63.5 -22q23 0 40 6.5t26.5 19.5t9.5 30q0 20 -17.5 33.5t-58.5 23.5l-103 26q-90 23 -130 66.5t-40 99.5zM184 247q0 -21 16 -36t46 -23t72 -8
q30 0 49.5 6t29 18.5t9.5 30.5q0 21 -16.5 36t-46.5 23t-71 8q-29 0 -48.5 -6t-29.5 -18.5t-10 -30.5z" />
    <glyph glyph-name="dieresis" unicode="&#xa8;" 
d="M470 659q0 -41 -28 -67t-70 -26q-44 0 -72 26t-28 67q0 43 28 69t72 26q42 0 70 -26t28 -69zM228 659q0 -41 -27.5 -67t-72.5 -26q-42 0 -70 26t-28 67q0 43 28 69t70 26q45 0 72.5 -26t27.5 -69z" />
    <glyph glyph-name="copyright" unicode="&#xa9;" horiz-adv-x="787" 
d="M393 -9q-76 0 -140.5 27t-112.5 74.5t-74.5 110.5t-26.5 135t26.5 135.5t74.5 111t112.5 74.5t140.5 27t141 -27t113 -74.5t74.5 -111t26.5 -135.5t-26.5 -135t-74.5 -110.5t-113 -74.5t-141 -27zM393 77q58 0 105 20t81 55.5t52.5 83t18.5 102.5q0 56 -18.5 103.5
t-52.5 82.5t-81 55t-105 20q-57 0 -104 -20t-81 -55t-52.5 -82.5t-18.5 -103.5q0 -55 18.5 -102.5t52.5 -83t81 -55.5t104 -20zM472 315h106q-8 -72 -59 -116t-125 -44q-50 0 -91 24.5t-65 66t-24 92.5q0 52 24 93t65 65.5t91 24.5q74 0 125 -44.5t59 -115.5h-106
q-5 32 -26 51t-51 19q-24 0 -41.5 -11.5t-27 -32.5t-9.5 -49t9.5 -49t27 -33t41.5 -12q29 0 50.5 20t26.5 51z" />
    <glyph glyph-name="ordfeminine" unicode="&#xaa;" horiz-adv-x="428" 
d="M287 255v38q-22 -25 -51.5 -35.5t-70.5 -10.5q-67 0 -108.5 36.5t-41.5 96.5q0 62 49.5 94.5t141.5 32.5q17 0 33 -1.5t29 -3.5v19q0 26 -15.5 39t-42.5 13q-25 0 -43.5 -13t-18.5 -39h-127q4 46 30 82.5t68 58t92 21.5q90 0 140 -45t50 -125v-258h-114zM148 384
q0 -19 13 -29.5t37 -10.5q33 0 51.5 13.5t18.5 35.5v25q-16 3 -28 4.5t-25 1.5q-67 0 -67 -40z" />
    <glyph glyph-name="guillemotleft" unicode="&#xab;" horiz-adv-x="628" 
d="M348 62h-190l-148 205l148 205h190l-138 -205zM618 62h-190l-148 205l148 205h190l-138 -205z" />
    <glyph glyph-name="logicalnot" unicode="&#xac;" horiz-adv-x="660" 
d="M570 156h-161v227h-329v149h490v-376z" />
    <glyph glyph-name="softhyphen" unicode="&#xad;" horiz-adv-x="360" 
d="M330 197h-300v154h300v-154z" />
    <glyph glyph-name="registered" unicode="&#xae;" horiz-adv-x="787" 
d="M393 -9q-76 0 -140.5 27t-112.5 74.5t-74.5 110.5t-26.5 135t26.5 135.5t74.5 111t112.5 74.5t140.5 27t141 -27t113 -74.5t74.5 -111t26.5 -135.5t-26.5 -135t-74.5 -110.5t-113 -74.5t-141 -27zM393 77q58 0 105 20t81 55.5t52.5 83t18.5 102.5q0 56 -18.5 103.5
t-52.5 82.5t-81 55t-105 20q-57 0 -104 -20t-81 -55t-52.5 -82.5t-18.5 -103.5q0 -55 18.5 -102.5t52.5 -83t81 -55.5t104 -20zM442 162l-69 114h-24v-114h-100v352h147q73 0 113 -30.5t40 -88.5q0 -37 -20.5 -62.5t-52.5 -39.5l88 -131h-122zM392 431h-43v-72h43
q31 0 44 10t13 26t-13 26t-44 10z" />
    <glyph glyph-name="macron" unicode="&#xaf;" 
d="M425 583h-349v110h349v-110z" />
    <glyph glyph-name="degree" unicode="&#xb0;" horiz-adv-x="478" 
d="M239 303q-64 0 -114.5 28.5t-79.5 76.5t-29 105q0 58 29 105.5t79.5 76t114.5 28.5t114.5 -28.5t79.5 -76t29 -105.5q0 -57 -29 -105t-79.5 -76.5t-114.5 -28.5zM239 424q23 0 42 10.5t30.5 30.5t11.5 48q0 29 -11.5 48.5t-30.5 30t-42 10.5q-22 0 -41.5 -10.5t-31.5 -30
t-12 -48.5q0 -28 12 -48t31.5 -30.5t41.5 -10.5z" />
    <glyph glyph-name="plusminus" unicode="&#xb1;" horiz-adv-x="660" 
d="M411 197h-162v169h-169v150h169v169h162v-169h169v-150h-169v-169zM580 0h-500v150h500v-150z" />
    <glyph glyph-name="twosuperior" unicode="&#xb2;" horiz-adv-x="385" 
d="M363 615v-100h-334l1 63l135 114q36 30 55 50.5t19 43.5q0 17 -14.5 29t-42.5 12t-43.5 -12t-15.5 -38h-108q0 44 22.5 78t62 53t90.5 19q54 0 90.5 -19t55.5 -47.5t19 -58.5q0 -27 -10 -49.5t-33.5 -46.5t-62.5 -57l-41 -34h155z" />
    <glyph glyph-name="threesuperior" unicode="&#xb3;" horiz-adv-x="407" 
d="M381 642q0 -59 -50 -95t-131 -36q-76 0 -125 36.5t-49 93.5h109q2 -21 19.5 -32t46.5 -11q31 0 48 11t17 30q0 20 -20 30t-58 10h-51v88h44q32 0 48.5 9t16.5 27t-13.5 27.5t-38.5 9.5t-38.5 -11.5t-13.5 -31.5h-108q0 37 22 66.5t59.5 47t83.5 17.5q76 0 119 -32.5
t43 -82.5q0 -25 -15 -45.5t-44 -37.5q38 -13 58.5 -35t20.5 -53z" />
    <glyph glyph-name="acute" unicode="&#xb4;" 
d="M277 571h-176l100 162h197z" />
    <glyph glyph-name="micro" unicode="&#xb5;" horiz-adv-x="619" 
d="M225 -193h-169v731h171v-294q0 -50 21.5 -75.5t65.5 -25.5q40 0 59 28.5t19 65.5v301h171v-538h-168v43q-15 -25 -40.5 -39t-53.5 -14q-27 0 -50.5 7.5t-39.5 20.5z" />
    <glyph glyph-name="paragraph" unicode="&#xb6;" horiz-adv-x="779" 
d="M440 -193h-172v376q-77 8 -131 38.5t-82.5 82.5t-28.5 124q0 80 36 135.5t102.5 84.5t158.5 29h436v-154h-66v-716h-173v716h-80v-716z" />
    <glyph glyph-name="periodcentered" unicode="&#xb7;" horiz-adv-x="265" 
d="M241 264q0 -48 -30 -78.5t-78 -30.5t-78.5 30.5t-30.5 78.5q0 49 30.5 79.5t78.5 30.5t78 -30.5t30 -79.5z" />
    <glyph glyph-name="cedilla" unicode="&#xb8;" 
d="M385 -110q0 -39 -36.5 -63.5t-95.5 -24.5q-60 0 -95.5 26t-41.5 75h103q2 -13 8.5 -18.5t18.5 -5.5q11 0 18 6t7 16q0 12 -7.5 19t-23 9t-40.5 -1l22 91h81l-13 -49q44 -6 69.5 -27.5t25.5 -52.5z" />
    <glyph glyph-name="onesuperior" unicode="&#xb9;" horiz-adv-x="251" 
d="M209 515h-112v309h-84v97h196v-406z" />
    <glyph glyph-name="ordmasculine" unicode="&#xba;" horiz-adv-x="488" 
d="M244 247q-64 0 -115 29.5t-81 79t-30 109.5t30 109.5t81 79t115 29.5t115 -29.5t81 -79t30 -109.5t-30 -109.5t-81 -79t-115 -29.5zM244 374q20 0 38 10t29.5 30t11.5 51t-11.5 51t-29.5 30t-38 10t-38 -10t-29.5 -30t-11.5 -51t11.5 -51t29.5 -30t38 -10z" />
    <glyph glyph-name="guillemotright" unicode="&#xbb;" horiz-adv-x="628" 
d="M10 472h190l148 -205l-148 -205h-190l138 205zM280 472h190l148 -205l-148 -205h-190l138 205z" />
    <glyph glyph-name="onequarter" unicode="&#xbc;" horiz-adv-x="822" 
d="M209 270h-112v309h-84v97h196v-406zM247 0h-135l386 676h135zM795 69h-65v-69h-111v69h-213v84l234 253h90v-240h65v-97zM534 166h85v91z" />
    <glyph glyph-name="onehalf" unicode="&#xbd;" horiz-adv-x="869" 
d="M209 270h-112v309h-84v97h196v-406zM247 0h-135l386 676h135zM847 100v-100h-334l1 63l135 114q36 30 55 50.5t19 43.5q0 17 -14.5 29t-42.5 12t-43.5 -12t-15.5 -38h-108q0 44 22.5 78t62 53t90.5 19q54 0 90.5 -18.5t55.5 -47.5t19 -59q0 -27 -10 -49.5t-33.5 -46.5
t-62.5 -57l-41 -34h155z" />
    <glyph glyph-name="threequarters" unicode="&#xbe;" horiz-adv-x="978" 
d="M381 397q0 -59 -50 -95t-131 -36q-76 0 -125 36.5t-49 93.5h109q2 -21 19.5 -32t46.5 -11q31 0 48 11t17 30q0 20 -20 30t-58 10h-51v88h44q32 0 48.5 9t16.5 27t-13.5 27.5t-38.5 9.5t-38.5 -11.5t-13.5 -31.5h-108q0 37 22 66.5t59.5 47t83.5 17.5q76 0 119 -32.5
t43 -82.5q0 -25 -15 -45.5t-44 -37.5q38 -13 58.5 -35t20.5 -53zM403 0h-135l386 676h135zM951 69h-65v-69h-111v69h-213v84l234 253h90v-240h65v-97zM690 166h85v91z" />
    <glyph glyph-name="questiondown" unicode="&#xbf;" horiz-adv-x="555" 
d="M179 435q0 46 32 75.5t81 29.5t81.5 -29.5t32.5 -75.5t-32 -76t-82 -30q-49 0 -81 30t-32 76zM377 22h160q-3 -67 -38.5 -117.5t-94.5 -79t-134 -28.5q-74 0 -131 25t-89 70t-32 103q0 39 25 74.5t65 72.5l78 71q20 18 30.5 32.5t13 27.5t-3.5 28h109q18 -29 24.5 -55
t-2 -51t-36.5 -52l-73 -71q-20 -19 -29.5 -33t-9.5 -31q0 -28 21.5 -43.5t58.5 -15.5q38 0 61 20t27 53z" />
    <glyph glyph-name="Agrave" unicode="&#xc0;" horiz-adv-x="748" 
d="M216 282h305l49 -149h-404zM538 0l-168 510l-173 -510h-191l266 718h207l263 -718h-204zM460 751h-176l-121 162h198z" />
    <glyph glyph-name="Aacute" unicode="&#xc1;" horiz-adv-x="748" 
d="M216 282h305l49 -149h-404zM538 0l-168 510l-173 -510h-191l266 718h207l263 -718h-204zM466 751h-176l100 162h197z" />
    <glyph glyph-name="Acircumflex" unicode="&#xc2;" horiz-adv-x="748" 
d="M216 282h305l49 -149h-404zM538 0l-168 510l-173 -510h-191l266 718h207l263 -718h-204zM314 751h-188l141 162h217l140 -162h-187l-62 74z" />
    <glyph glyph-name="Atilde" unicode="&#xc3;" horiz-adv-x="748" 
d="M216 282h305l49 -149h-404zM538 0l-168 510l-173 -510h-191l266 718h207l263 -718h-204zM283 746h-103q-9 50 3 87.5t40.5 59t67.5 21.5q25 0 48 -5.5t42 -13.5t34.5 -13.5t25.5 -5.5q12 0 20 9t6 37h103q9 -48 -3.5 -86t-41 -60t-68.5 -22q-25 0 -47.5 5.5t-41.5 13.5
t-34 13.5t-26 5.5t-18.5 -8.5t-6.5 -37.5z" />
    <glyph glyph-name="Adieresis" unicode="&#xc4;" horiz-adv-x="748" 
d="M216 282h305l49 -149h-404zM538 0l-168 510l-173 -510h-191l266 718h207l263 -718h-204zM595 839q0 -41 -28 -67t-70 -26q-44 0 -72 26t-28 67q0 43 28 69t72 26q42 0 70 -26t28 -69zM353 839q0 -41 -27.5 -67t-72.5 -26q-42 0 -70 26t-28 67q0 43 28 69t70 26
q45 0 72.5 -26t27.5 -69z" />
    <glyph glyph-name="Aring" unicode="&#xc5;" horiz-adv-x="748" 
d="M216 282h305l49 -149h-404zM538 0l-168 510l-173 -510h-191l266 718h207l263 -718h-204zM375 746q-43 0 -76 18t-51 48t-18 65q0 37 18 67t51 48t76 18t76 -18t51.5 -48t18.5 -67q0 -35 -18.5 -65t-51.5 -48t-76 -18zM375 830q20 0 34 11t14 36q0 26 -14 38t-34 12
q-18 0 -33.5 -12t-15.5 -38q0 -25 15.5 -36t33.5 -11z" />
    <glyph glyph-name="AE" unicode="&#xc6;" horiz-adv-x="948" 
d="M441 133h-261l65 149h196v279l-242 -561h-213l336 718h581v-163h-274v-104h244v-164h-244v-124h281v-163h-469v133z" />
    <glyph glyph-name="Ccedilla" unicode="&#xc7;" horiz-adv-x="793" 
d="M393 -15q-76 0 -142.5 28.5t-116.5 80t-78 119.5t-28 147t28 146.5t78 118.5t116.5 79.5t142.5 28.5q99 0 179 -40.5t131 -113t62 -167.5h-200q-7 45 -31 79.5t-59.5 53.5t-79.5 19q-40 0 -72 -14.5t-54.5 -41.5t-34.5 -64.5t-12 -83.5t12 -84t34.5 -65t54.5 -42t72 -15
q44 0 79.5 19.5t59 54t31.5 79.5h200q-12 -96 -63 -168.5t-130.5 -113t-178.5 -40.5zM517 -110q0 -39 -36.5 -63.5t-95.5 -24.5q-60 0 -95.5 26t-41.5 75h103q2 -13 8.5 -18.5t18.5 -5.5q11 0 18 6t7 16q0 12 -7.5 19t-23 9t-40.5 -1l22 91h81l-13 -49q44 -6 69.5 -27.5
t25.5 -52.5z" />
    <glyph glyph-name="Egrave" unicode="&#xc8;" horiz-adv-x="616" 
d="M578 164v-164h-508v718h501v-164h-312v-103h283v-164h-283v-123h319zM408 751h-176l-121 162h198z" />
    <glyph glyph-name="Eacute" unicode="&#xc9;" horiz-adv-x="616" 
d="M578 164v-164h-508v718h501v-164h-312v-103h283v-164h-283v-123h319zM414 751h-176l100 162h197z" />
    <glyph glyph-name="Ecircumflex" unicode="&#xca;" horiz-adv-x="616" 
d="M578 164v-164h-508v718h501v-164h-312v-103h283v-164h-283v-123h319zM262 751h-188l141 162h217l140 -162h-187l-62 74z" />
    <glyph glyph-name="Edieresis" unicode="&#xcb;" horiz-adv-x="616" 
d="M578 164v-164h-508v718h501v-164h-312v-103h283v-164h-283v-123h319zM543 839q0 -41 -28 -67t-70 -26q-44 0 -72 26t-28 67q0 43 28 69t72 26q42 0 70 -26t28 -69zM301 839q0 -41 -27.5 -67t-72.5 -26q-42 0 -70 26t-28 67q0 43 28 69t70 26q45 0 72.5 -26t27.5 -69z" />
    <glyph glyph-name="Igrave" unicode="&#xcc;" horiz-adv-x="329" 
d="M259 0h-189v718h189v-718zM251 751h-177l-109 162h197z" />
    <glyph glyph-name="Iacute" unicode="&#xcd;" horiz-adv-x="329" 
d="M259 0h-189v718h189v-718zM257 751h-176l90 162h196z" />
    <glyph glyph-name="Icircumflex" unicode="&#xce;" horiz-adv-x="329" 
d="M259 0h-189v718h189v-718zM116 751h-188l127 162h222l126 -162h-187l-50 74z" />
    <glyph glyph-name="Idieresis" unicode="&#xcf;" horiz-adv-x="329" 
d="M259 0h-189v718h189v-718zM376 839q0 -41 -27 -67t-68 -26q-43 0 -70.5 26t-27.5 67q0 43 27.5 69t70.5 26q41 0 68 -26t27 -69zM149 839q0 -41 -27 -67t-71 -26q-41 0 -68 26t-27 67q0 43 27 69t68 26q44 0 71 -26t27 -69z" />
    <glyph glyph-name="Eth" unicode="&#xd0;" horiz-adv-x="772" 
d="M374 0h-280v718h280q114 0 197 -45t128 -125t45 -185q0 -104 -46 -186.5t-129.5 -129.5t-194.5 -47zM283 555v-392h80q63 0 104.5 22t62 66.5t20.5 111.5q0 64 -21 106.5t-62.5 64t-103.5 21.5h-80zM420 292h-414v154h414v-154z" />
    <glyph glyph-name="Ntilde" unicode="&#xd1;" horiz-adv-x="781" 
d="M529 0l-286 448v-448h-173v718h203l265 -415v415h173v-718h-182zM298 746h-103q-9 50 3 87.5t40.5 59t67.5 21.5q25 0 48 -5.5t42 -13.5t34.5 -13.5t25.5 -5.5q12 0 20 9t6 37h103q9 -48 -3.5 -86t-41 -60t-68.5 -22q-25 0 -47.5 5.5t-41.5 13.5t-34 13.5t-26 5.5
t-18.5 -8.5t-6.5 -37.5z" />
    <glyph glyph-name="Ograve" unicode="&#xd2;" horiz-adv-x="797" 
d="M398 -15q-78 0 -145 27.5t-117.5 78t-79 119t-28.5 150.5t28.5 150t79 118t117.5 77.5t145 27.5t145.5 -27.5t118 -77.5t79 -118t28.5 -150t-28.5 -150.5t-79 -119t-118 -78t-145.5 -27.5zM398 154q42 0 75 16t55.5 44.5t34 66t11.5 79.5t-11.5 79t-34 65t-55.5 44
t-75 16t-75 -16t-55.5 -44t-34 -65t-11.5 -79t11.5 -79.5t34 -66t55.5 -44.5t75 -16zM483 751h-176l-121 162h198z" />
    <glyph glyph-name="Oacute" unicode="&#xd3;" horiz-adv-x="797" 
d="M398 -15q-78 0 -145 27.5t-117.5 78t-79 119t-28.5 150.5t28.5 150t79 118t117.5 77.5t145 27.5t145.5 -27.5t118 -77.5t79 -118t28.5 -150t-28.5 -150.5t-79 -119t-118 -78t-145.5 -27.5zM398 154q42 0 75 16t55.5 44.5t34 66t11.5 79.5t-11.5 79t-34 65t-55.5 44
t-75 16t-75 -16t-55.5 -44t-34 -65t-11.5 -79t11.5 -79.5t34 -66t55.5 -44.5t75 -16zM489 751h-176l100 162h197z" />
    <glyph glyph-name="Ocircumflex" unicode="&#xd4;" horiz-adv-x="797" 
d="M398 -15q-78 0 -145 27.5t-117.5 78t-79 119t-28.5 150.5t28.5 150t79 118t117.5 77.5t145 27.5t145.5 -27.5t118 -77.5t79 -118t28.5 -150t-28.5 -150.5t-79 -119t-118 -78t-145.5 -27.5zM398 154q42 0 75 16t55.5 44.5t34 66t11.5 79.5t-11.5 79t-34 65t-55.5 44
t-75 16t-75 -16t-55.5 -44t-34 -65t-11.5 -79t11.5 -79.5t34 -66t55.5 -44.5t75 -16zM337 751h-188l141 162h217l140 -162h-187l-62 74z" />
    <glyph glyph-name="Otilde" unicode="&#xd5;" horiz-adv-x="797" 
d="M398 -15q-78 0 -145 27.5t-117.5 78t-79 119t-28.5 150.5t28.5 150t79 118t117.5 77.5t145 27.5t145.5 -27.5t118 -77.5t79 -118t28.5 -150t-28.5 -150.5t-79 -119t-118 -78t-145.5 -27.5zM398 154q42 0 75 16t55.5 44.5t34 66t11.5 79.5t-11.5 79t-34 65t-55.5 44
t-75 16t-75 -16t-55.5 -44t-34 -65t-11.5 -79t11.5 -79.5t34 -66t55.5 -44.5t75 -16zM306 746h-103q-9 50 3 87.5t40.5 59t67.5 21.5q25 0 48 -5.5t42 -13.5t34.5 -13.5t25.5 -5.5q12 0 20 9t6 37h103q9 -48 -3.5 -86t-41 -60t-68.5 -22q-25 0 -47.5 5.5t-41.5 13.5
t-34 13.5t-26 5.5t-18.5 -8.5t-6.5 -37.5z" />
    <glyph glyph-name="Odieresis" unicode="&#xd6;" horiz-adv-x="797" 
d="M398 -15q-78 0 -145 27.5t-117.5 78t-79 119t-28.5 150.5t28.5 150t79 118t117.5 77.5t145 27.5t145.5 -27.5t118 -77.5t79 -118t28.5 -150t-28.5 -150.5t-79 -119t-118 -78t-145.5 -27.5zM398 154q42 0 75 16t55.5 44.5t34 66t11.5 79.5t-11.5 79t-34 65t-55.5 44
t-75 16t-75 -16t-55.5 -44t-34 -65t-11.5 -79t11.5 -79.5t34 -66t55.5 -44.5t75 -16zM618 839q0 -41 -28 -67t-70 -26q-44 0 -72 26t-28 67q0 43 28 69t72 26q42 0 70 -26t28 -69zM376 839q0 -41 -27.5 -67t-72.5 -26q-42 0 -70 26t-28 67q0 43 28 69t70 26q45 0 72.5 -26
t27.5 -69z" />
    <glyph glyph-name="multiply" unicode="&#xd7;" horiz-adv-x="660" 
d="M180 89l-99 101l148 148l-148 149l99 101l149 -150l147 149l103 -99l-150 -150l148 -148l-101 -100l-147 148z" />
    <glyph glyph-name="Oslash" unicode="&#xd8;" horiz-adv-x="797" 
d="M398 -15q-78 0 -145 27.5t-117.5 78t-79 119t-28.5 150.5t28.5 150t79 118t117.5 77.5t145 27.5t145.5 -27.5t118 -77.5t79 -118t28.5 -150t-28.5 -150.5t-79 -119t-118 -78t-145.5 -27.5zM398 154q42 0 75 16t55.5 44.5t34 66t11.5 79.5t-11.5 79t-34 65t-55.5 44
t-75 16t-75 -16t-55.5 -44t-34 -65t-11.5 -79t11.5 -79.5t34 -66t55.5 -44.5t75 -16zM214 0h-167l536 718h166z" />
    <glyph glyph-name="Ugrave" unicode="&#xd9;" horiz-adv-x="759" 
d="M691 718v-432q0 -87 -35.5 -155t-105 -107t-170.5 -39q-102 0 -171.5 39t-105 107t-35.5 155v432h189v-435q0 -37 11 -66.5t37.5 -46t74.5 -16.5t74.5 16.5t37 46t10.5 66.5v435h189zM465 751h-176l-121 162h198z" />
    <glyph glyph-name="Uacute" unicode="&#xda;" horiz-adv-x="759" 
d="M691 718v-432q0 -87 -35.5 -155t-105 -107t-170.5 -39q-102 0 -171.5 39t-105 107t-35.5 155v432h189v-435q0 -37 11 -66.5t37.5 -46t74.5 -16.5t74.5 16.5t37 46t10.5 66.5v435h189zM471 751h-176l100 162h197z" />
    <glyph glyph-name="Ucircumflex" unicode="&#xdb;" horiz-adv-x="759" 
d="M691 718v-432q0 -87 -35.5 -155t-105 -107t-170.5 -39q-102 0 -171.5 39t-105 107t-35.5 155v432h189v-435q0 -37 11 -66.5t37.5 -46t74.5 -16.5t74.5 16.5t37 46t10.5 66.5v435h189zM319 751h-188l141 162h217l140 -162h-187l-62 74z" />
    <glyph glyph-name="Udieresis" unicode="&#xdc;" horiz-adv-x="759" 
d="M691 718v-432q0 -87 -35.5 -155t-105 -107t-170.5 -39q-102 0 -171.5 39t-105 107t-35.5 155v432h189v-435q0 -37 11 -66.5t37.5 -46t74.5 -16.5t74.5 16.5t37 46t10.5 66.5v435h189zM600 839q0 -41 -28 -67t-70 -26q-44 0 -72 26t-28 67q0 43 28 69t72 26q42 0 70 -26
t28 -69zM358 839q0 -41 -27.5 -67t-72.5 -26q-42 0 -70 26t-28 67q0 43 28 69t70 26q45 0 72.5 -26t27.5 -69z" />
    <glyph glyph-name="Yacute" unicode="&#xdd;" horiz-adv-x="701" 
d="M444 270v-270h-189v270l-251 448h204l148 -275l151 275h190zM447 751h-176l100 162h197z" />
    <glyph glyph-name="Thorn" unicode="&#xde;" horiz-adv-x="672" 
d="M345 112h-86v-112h-189v718h189v-107h86q94 0 161.5 -27.5t103.5 -82t36 -135.5t-36 -137.5t-103.5 -86.5t-161.5 -30zM344 452h-85v-181h85q56 0 85 26t29 67q0 42 -29 65t-85 23z" />
    <glyph glyph-name="germandbls" unicode="&#xdf;" horiz-adv-x="653" 
d="M635 213q0 -71 -29 -121t-85 -76t-136 -26q-22 0 -36.5 1.5t-25.5 5.5v135q20 -3 31 -4t19 -1q41 0 63.5 22.5t22.5 62.5q0 42 -26.5 65.5t-75.5 23.5h-35v138h21q37 0 59.5 22.5t22.5 59.5q0 33 -19 52t-51 19q-36 0 -56 -22.5t-20 -62.5v-507h-171v389h-100v149h102
q9 51 40 94t83 69.5t124 26.5q79 0 133 -27t82 -71t28 -96q0 -48 -25 -84.5t-66 -59.5q59 -19 92.5 -65.5t33.5 -111.5z" />
    <glyph glyph-name="agrave" unicode="&#xe0;" horiz-adv-x="560" 
d="M371 0v52q-28 -32 -65 -47t-89 -15q-84 0 -135.5 46.5t-51.5 122.5q0 79 62 120.5t177 41.5q22 0 42 -1.5t37 -4.5v26q0 35 -19.5 54t-55.5 19q-35 0 -55.5 -19t-25.5 -54h-154q5 63 36 109.5t82.5 72t117.5 25.5q111 0 173 -57t62 -159v-332h-138zM191 164
q0 -26 17.5 -41t48.5 -15q43 0 67 19t24 52v34q-19 4 -35 5.5t-33 1.5q-43 0 -66 -14t-23 -42zM363 571h-176l-121 162h198z" />
    <glyph glyph-name="aacute" unicode="&#xe1;" horiz-adv-x="560" 
d="M371 0v52q-28 -32 -65 -47t-89 -15q-84 0 -135.5 46.5t-51.5 122.5q0 79 62 120.5t177 41.5q22 0 42 -1.5t37 -4.5v26q0 35 -19.5 54t-55.5 19q-35 0 -55.5 -19t-25.5 -54h-154q5 63 36 109.5t82.5 72t117.5 25.5q111 0 173 -57t62 -159v-332h-138zM191 164
q0 -26 17.5 -41t48.5 -15q43 0 67 19t24 52v34q-19 4 -35 5.5t-33 1.5q-43 0 -66 -14t-23 -42zM369 571h-176l100 162h197z" />
    <glyph glyph-name="acircumflex" unicode="&#xe2;" horiz-adv-x="560" 
d="M371 0v52q-28 -32 -65 -47t-89 -15q-84 0 -135.5 46.5t-51.5 122.5q0 79 62 120.5t177 41.5q22 0 42 -1.5t37 -4.5v26q0 35 -19.5 54t-55.5 19q-35 0 -55.5 -19t-25.5 -54h-154q5 63 36 109.5t82.5 72t117.5 25.5q111 0 173 -57t62 -159v-332h-138zM191 164
q0 -26 17.5 -41t48.5 -15q43 0 67 19t24 52v34q-19 4 -35 5.5t-33 1.5q-43 0 -66 -14t-23 -42zM217 571h-188l141 162h217l140 -162h-187l-62 74z" />
    <glyph glyph-name="atilde" unicode="&#xe3;" horiz-adv-x="560" 
d="M371 0v52q-28 -32 -65 -47t-89 -15q-84 0 -135.5 46.5t-51.5 122.5q0 79 62 120.5t177 41.5q22 0 42 -1.5t37 -4.5v26q0 35 -19.5 54t-55.5 19q-35 0 -55.5 -19t-25.5 -54h-154q5 63 36 109.5t82.5 72t117.5 25.5q111 0 173 -57t62 -159v-332h-138zM191 164
q0 -26 17.5 -41t48.5 -15q43 0 67 19t24 52v34q-19 4 -35 5.5t-33 1.5q-43 0 -66 -14t-23 -42zM186 566h-103q-9 50 3 87.5t40.5 59t67.5 21.5q25 0 48 -5.5t42 -13.5t34.5 -13.5t25.5 -5.5q12 0 20 9t6 37h103q9 -48 -3.5 -86t-41 -60t-68.5 -22q-25 0 -47.5 5.5
t-41.5 13.5t-34 13.5t-26 5.5t-18.5 -8.5t-6.5 -37.5z" />
    <glyph glyph-name="adieresis" unicode="&#xe4;" horiz-adv-x="560" 
d="M371 0v52q-28 -32 -65 -47t-89 -15q-84 0 -135.5 46.5t-51.5 122.5q0 79 62 120.5t177 41.5q22 0 42 -1.5t37 -4.5v26q0 35 -19.5 54t-55.5 19q-35 0 -55.5 -19t-25.5 -54h-154q5 63 36 109.5t82.5 72t117.5 25.5q111 0 173 -57t62 -159v-332h-138zM191 164
q0 -26 17.5 -41t48.5 -15q43 0 67 19t24 52v34q-19 4 -35 5.5t-33 1.5q-43 0 -66 -14t-23 -42zM498 659q0 -41 -28 -67t-70 -26q-44 0 -72 26t-28 67q0 43 28 69t72 26q42 0 70 -26t28 -69zM256 659q0 -41 -27.5 -67t-72.5 -26q-42 0 -70 26t-28 67q0 43 28 69t70 26
q45 0 72.5 -26t27.5 -69z" />
    <glyph glyph-name="aring" unicode="&#xe5;" horiz-adv-x="560" 
d="M371 0v52q-28 -32 -65 -47t-89 -15q-84 0 -135.5 46.5t-51.5 122.5q0 79 62 120.5t177 41.5q22 0 42 -1.5t37 -4.5v26q0 35 -19.5 54t-55.5 19q-35 0 -55.5 -19t-25.5 -54h-154q5 63 36 109.5t82.5 72t117.5 25.5q111 0 173 -57t62 -159v-332h-138zM191 164
q0 -26 17.5 -41t48.5 -15q43 0 67 19t24 52v34q-19 4 -35 5.5t-33 1.5q-43 0 -66 -14t-23 -42zM278 566q-43 0 -76 18t-51 48t-18 65q0 37 18 67t51 48t76 18t76 -18t51.5 -48t18.5 -67q0 -35 -18.5 -65t-51.5 -48t-76 -18zM278 650q20 0 34 11t14 36q0 26 -14 38t-34 12
q-18 0 -33.5 -12t-15.5 -38q0 -25 15.5 -36t33.5 -11z" />
    <glyph glyph-name="ae" unicode="&#xe6;" horiz-adv-x="875" 
d="M30 159q0 79 62 120.5t177 41.5q11 0 21.5 -0.5t20.5 -1t19 -1.5t18 -3v27q0 35 -20 53.5t-55 18.5q-34 0 -57 -17.5t-24 -55.5h-154q5 59 36 105.5t82.5 74t115.5 27.5q55 0 97.5 -15t70.5 -47q31 29 72.5 45.5t91.5 16.5q84 0 143.5 -40t87 -112t14.5 -170h-345
q2 -49 23 -75.5t68 -26.5q37 0 55 16t22 43h175q-22 -91 -85.5 -141.5t-157.5 -50.5q-61 0 -110.5 22t-83.5 66q-31 -41 -76.5 -65t-106.5 -24q-88 0 -142.5 46.5t-54.5 122.5zM592 422q-22 0 -40 -8.5t-29.5 -28t-14.5 -52.5h165q-1 43 -22 66t-59 23zM191 164
q0 -26 17.5 -41t48.5 -15q43 0 67 22t24 59v24q-13 3 -24.5 4.5t-22 2t-21.5 0.5q-89 0 -89 -56z" />
    <glyph glyph-name="ccedilla" unicode="&#xe7;" horiz-adv-x="588" 
d="M293 -10q-80 0 -141 35.5t-95.5 98.5t-34.5 145q0 80 35.5 143t97 99.5t138.5 36.5q74 0 133 -31.5t96 -87.5t44 -131h-182q-2 44 -26.5 70t-63.5 26q-30 0 -51 -15t-32.5 -42.5t-11.5 -67.5t11 -68.5t32.5 -43t51.5 -14.5q40 0 63.5 25.5t26.5 71.5h182q-7 -77 -43 -133
t-94.5 -86.5t-135.5 -30.5zM415 -110q0 -39 -36.5 -63.5t-95.5 -24.5q-60 0 -95.5 26t-41.5 75h103q2 -13 8.5 -18.5t18.5 -5.5q11 0 18 6t7 16q0 12 -7.5 19t-23 9t-40.5 -1l22 91h81l-13 -49q44 -6 69.5 -27.5t25.5 -52.5z" />
    <glyph glyph-name="egrave" unicode="&#xe8;" horiz-adv-x="591" 
d="M299 -9q-83 0 -145.5 35t-97 98t-34.5 146q0 81 35.5 143.5t98 98.5t142.5 36q67 0 121 -25t90.5 -69.5t51.5 -103t3 -124.5h-439v107h256q-1 41 -25 65t-62 24q-33 0 -54.5 -16.5t-32.5 -50.5t-11 -86q0 -48 11 -80.5t33 -48.5t55 -16q36 0 60 15t35 44h171
q-25 -92 -93 -142t-169 -50zM374 571h-176l-121 162h198z" />
    <glyph glyph-name="eacute" unicode="&#xe9;" horiz-adv-x="591" 
d="M299 -9q-83 0 -145.5 35t-97 98t-34.5 146q0 81 35.5 143.5t98 98.5t142.5 36q67 0 121 -25t90.5 -69.5t51.5 -103t3 -124.5h-439v107h256q-1 41 -25 65t-62 24q-33 0 -54.5 -16.5t-32.5 -50.5t-11 -86q0 -48 11 -80.5t33 -48.5t55 -16q36 0 60 15t35 44h171
q-25 -92 -93 -142t-169 -50zM380 571h-176l100 162h197z" />
    <glyph glyph-name="ecircumflex" unicode="&#xea;" horiz-adv-x="591" 
d="M299 -9q-83 0 -145.5 35t-97 98t-34.5 146q0 81 35.5 143.5t98 98.5t142.5 36q67 0 121 -25t90.5 -69.5t51.5 -103t3 -124.5h-439v107h256q-1 41 -25 65t-62 24q-33 0 -54.5 -16.5t-32.5 -50.5t-11 -86q0 -48 11 -80.5t33 -48.5t55 -16q36 0 60 15t35 44h171
q-25 -92 -93 -142t-169 -50zM228 571h-188l141 162h217l140 -162h-187l-62 74z" />
    <glyph glyph-name="edieresis" unicode="&#xeb;" horiz-adv-x="591" 
d="M299 -9q-83 0 -145.5 35t-97 98t-34.5 146q0 81 35.5 143.5t98 98.5t142.5 36q67 0 121 -25t90.5 -69.5t51.5 -103t3 -124.5h-439v107h256q-1 41 -25 65t-62 24q-33 0 -54.5 -16.5t-32.5 -50.5t-11 -86q0 -48 11 -80.5t33 -48.5t55 -16q36 0 60 15t35 44h171
q-25 -92 -93 -142t-169 -50zM509 659q0 -41 -28 -67t-70 -26q-44 0 -72 26t-28 67q0 43 28 69t72 26q42 0 70 -26t28 -69zM267 659q0 -41 -27.5 -67t-72.5 -26q-42 0 -70 26t-28 67q0 43 28 69t70 26q45 0 72.5 -26t27.5 -69z" />
    <glyph glyph-name="igrave" unicode="&#xec;" horiz-adv-x="283" 
d="M227 0h-171v538h171v-538zM226 571h-177l-109 162h197z" />
    <glyph glyph-name="iacute" unicode="&#xed;" horiz-adv-x="283" 
d="M227 0h-171v538h171v-538zM232 571h-176l90 162h196z" />
    <glyph glyph-name="icircumflex" unicode="&#xee;" horiz-adv-x="283" 
d="M227 0h-171v538h171v-538zM91 571h-188l127 162h222l126 -162h-187l-50 74z" />
    <glyph glyph-name="idieresis" unicode="&#xef;" horiz-adv-x="283" 
d="M227 0h-171v538h171v-538zM351 659q0 -41 -27 -67t-68 -26q-43 0 -70.5 26t-27.5 67q0 43 27.5 69t70.5 26q41 0 68 -26t27 -69zM124 659q0 -41 -27 -67t-71 -26q-41 0 -68 26t-27 67q0 43 27 69t68 26q44 0 71 -26t27 -69z" />
    <glyph glyph-name="eth" unicode="&#xf0;" horiz-adv-x="597" 
d="M22 265q0 74 30 132t86.5 92t136.5 34h7h7l-35 46l-135 -32v110l64 15l-42 56h194l13 -17l147 34v-110l-76 -18l64 -85q33 -43 53.5 -81t29.5 -79.5t9 -96.5q0 -52 -20 -101t-56.5 -88.5t-87 -62.5t-112.5 -23q-82 0 -144.5 37.5t-97.5 100t-35 137.5zM199 267
q0 -41 14 -68.5t37 -41t48 -13.5q37 0 67.5 30.5t30.5 92.5q0 42 -14 69.5t-36.5 41t-47.5 13.5q-38 0 -68.5 -30.5t-30.5 -93.5z" />
    <glyph glyph-name="ntilde" unicode="&#xf1;" horiz-adv-x="605" 
d="M227 283v-283h-171v538h157v-65q32 35 70.5 55t89.5 20q80 0 130.5 -52t50.5 -150v-346h-171v289q0 51 -18.5 78t-57.5 27q-21 0 -39.5 -11t-29.5 -35t-11 -65zM210 566h-103q-9 50 3 87.5t40.5 59t67.5 21.5q25 0 48 -5.5t42 -13.5t34.5 -13.5t25.5 -5.5q12 0 20 9t6 37
h103q9 -48 -3.5 -86t-41 -60t-68.5 -22q-25 0 -47.5 5.5t-41.5 13.5t-34 13.5t-26 5.5t-18.5 -8.5t-6.5 -37.5z" />
    <glyph glyph-name="ograve" unicode="&#xf2;" horiz-adv-x="606" 
d="M303 -10q-60 0 -111 21.5t-89 60t-59.5 89t-21.5 108.5t21.5 108.5t59.5 89t89 60t111 21.5t111 -21.5t89 -60t59.5 -89t21.5 -108.5t-21.5 -108.5t-59.5 -89t-89 -60t-111 -21.5zM303 143q27 0 50.5 14t38 42t14.5 70t-14.5 70t-38 41.5t-50.5 13.5q-26 0 -50 -13.5
t-38.5 -41.5t-14.5 -70t14.5 -70t38.5 -42t50 -14zM388 571h-176l-121 162h198z" />
    <glyph glyph-name="oacute" unicode="&#xf3;" horiz-adv-x="606" 
d="M303 -10q-60 0 -111 21.5t-89 60t-59.5 89t-21.5 108.5t21.5 108.5t59.5 89t89 60t111 21.5t111 -21.5t89 -60t59.5 -89t21.5 -108.5t-21.5 -108.5t-59.5 -89t-89 -60t-111 -21.5zM303 143q27 0 50.5 14t38 42t14.5 70t-14.5 70t-38 41.5t-50.5 13.5q-26 0 -50 -13.5
t-38.5 -41.5t-14.5 -70t14.5 -70t38.5 -42t50 -14zM394 571h-176l100 162h197z" />
    <glyph glyph-name="ocircumflex" unicode="&#xf4;" horiz-adv-x="606" 
d="M303 -10q-60 0 -111 21.5t-89 60t-59.5 89t-21.5 108.5t21.5 108.5t59.5 89t89 60t111 21.5t111 -21.5t89 -60t59.5 -89t21.5 -108.5t-21.5 -108.5t-59.5 -89t-89 -60t-111 -21.5zM303 143q27 0 50.5 14t38 42t14.5 70t-14.5 70t-38 41.5t-50.5 13.5q-26 0 -50 -13.5
t-38.5 -41.5t-14.5 -70t14.5 -70t38.5 -42t50 -14zM242 571h-188l141 162h217l140 -162h-187l-62 74z" />
    <glyph glyph-name="otilde" unicode="&#xf5;" horiz-adv-x="606" 
d="M303 -10q-60 0 -111 21.5t-89 60t-59.5 89t-21.5 108.5t21.5 108.5t59.5 89t89 60t111 21.5t111 -21.5t89 -60t59.5 -89t21.5 -108.5t-21.5 -108.5t-59.5 -89t-89 -60t-111 -21.5zM303 143q27 0 50.5 14t38 42t14.5 70t-14.5 70t-38 41.5t-50.5 13.5q-26 0 -50 -13.5
t-38.5 -41.5t-14.5 -70t14.5 -70t38.5 -42t50 -14zM211 566h-103q-9 50 3 87.5t40.5 59t67.5 21.5q25 0 48 -5.5t42 -13.5t34.5 -13.5t25.5 -5.5q12 0 20 9t6 37h103q9 -48 -3.5 -86t-41 -60t-68.5 -22q-25 0 -47.5 5.5t-41.5 13.5t-34 13.5t-26 5.5t-18.5 -8.5t-6.5 -37.5z
" />
    <glyph glyph-name="odieresis" unicode="&#xf6;" horiz-adv-x="606" 
d="M303 -10q-60 0 -111 21.5t-89 60t-59.5 89t-21.5 108.5t21.5 108.5t59.5 89t89 60t111 21.5t111 -21.5t89 -60t59.5 -89t21.5 -108.5t-21.5 -108.5t-59.5 -89t-89 -60t-111 -21.5zM303 143q27 0 50.5 14t38 42t14.5 70t-14.5 70t-38 41.5t-50.5 13.5q-26 0 -50 -13.5
t-38.5 -41.5t-14.5 -70t14.5 -70t38.5 -42t50 -14zM523 659q0 -41 -28 -67t-70 -26q-44 0 -72 26t-28 67q0 43 28 69t72 26q42 0 70 -26t28 -69zM281 659q0 -41 -27.5 -67t-72.5 -26q-42 0 -70 26t-28 67q0 43 28 69t70 26q45 0 72.5 -26t27.5 -69z" />
    <glyph glyph-name="divide" unicode="&#xf7;" horiz-adv-x="660" 
d="M580 269h-500v150h500v-150zM438 539q0 -48 -30 -78.5t-78 -30.5t-78.5 30.5t-30.5 78.5q0 49 30.5 79.5t78.5 30.5t78 -30.5t30 -79.5zM438 152q0 -48 -30 -78.5t-78 -30.5t-78.5 30.5t-30.5 78.5q0 49 30.5 79.5t78.5 30.5t78 -30.5t30 -79.5z" />
    <glyph glyph-name="oslash" unicode="&#xf8;" horiz-adv-x="606" 
d="M303 -10q-60 0 -111 21.5t-89 60t-59.5 89t-21.5 108.5t21.5 108.5t59.5 89t89 60t111 21.5t111 -21.5t89 -60t59.5 -89t21.5 -108.5t-21.5 -108.5t-59.5 -89t-89 -60t-111 -21.5zM303 143q27 0 50.5 14t38 42t14.5 70t-14.5 70t-38 41.5t-50.5 13.5q-26 0 -50 -13.5
t-38.5 -41.5t-14.5 -70t14.5 -70t38.5 -42t50 -14zM175 0h-127l385 538h127z" />
    <glyph glyph-name="ugrave" unicode="&#xf9;" horiz-adv-x="602" 
d="M375 231v307h171v-538h-157v58q-22 -30 -62.5 -49t-87.5 -19q-53 0 -96 22.5t-67.5 69t-24.5 117.5v339h171v-307q0 -44 20.5 -66t56.5 -22q17 0 34.5 9.5t29.5 29t12 49.5zM385 571h-176l-121 162h198z" />
    <glyph glyph-name="uacute" unicode="&#xfa;" horiz-adv-x="602" 
d="M375 231v307h171v-538h-157v58q-22 -30 -62.5 -49t-87.5 -19q-53 0 -96 22.5t-67.5 69t-24.5 117.5v339h171v-307q0 -44 20.5 -66t56.5 -22q17 0 34.5 9.5t29.5 29t12 49.5zM391 571h-176l100 162h197z" />
    <glyph glyph-name="ucircumflex" unicode="&#xfb;" horiz-adv-x="602" 
d="M375 231v307h171v-538h-157v58q-22 -30 -62.5 -49t-87.5 -19q-53 0 -96 22.5t-67.5 69t-24.5 117.5v339h171v-307q0 -44 20.5 -66t56.5 -22q17 0 34.5 9.5t29.5 29t12 49.5zM239 571h-188l141 162h217l140 -162h-187l-62 74z" />
    <glyph glyph-name="udieresis" unicode="&#xfc;" horiz-adv-x="602" 
d="M375 231v307h171v-538h-157v58q-22 -30 -62.5 -49t-87.5 -19q-53 0 -96 22.5t-67.5 69t-24.5 117.5v339h171v-307q0 -44 20.5 -66t56.5 -22q17 0 34.5 9.5t29.5 29t12 49.5zM520 659q0 -41 -28 -67t-70 -26q-44 0 -72 26t-28 67q0 43 28 69t72 26q42 0 70 -26t28 -69z
M278 659q0 -41 -27.5 -67t-72.5 -26q-42 0 -70 26t-28 67q0 43 28 69t70 26q45 0 72.5 -26t27.5 -69z" />
    <glyph glyph-name="yacute" unicode="&#xfd;" horiz-adv-x="568" 
d="M573 538l-256 -731h-187l75 199l-210 532h186l116 -333l104 333h172zM376 571h-176l100 162h197z" />
    <glyph glyph-name="thorn" unicode="&#xfe;" horiz-adv-x="635" 
d="M613 269q0 -78 -30 -141t-83.5 -100.5t-126.5 -37.5q-42 0 -78 15t-68 45v-243h-171v911h171v-228q31 29 67.5 43.5t78.5 14.5q73 0 126.5 -37.5t83.5 -101t30 -140.5zM435 269q0 63 -32 94t-71 31q-26 0 -50 -14t-38.5 -41.5t-14.5 -70.5t15 -70.5t38.5 -40.5t49.5 -13
q39 0 71 30.5t32 94.5z" />
    <glyph glyph-name="ydieresis" unicode="&#xff;" horiz-adv-x="568" 
d="M573 538l-256 -731h-187l75 199l-210 532h186l116 -333l104 333h172zM505 659q0 -41 -28 -67t-70 -26q-44 0 -72 26t-28 67q0 43 28 69t72 26q42 0 70 -26t28 -69zM263 659q0 -41 -27.5 -67t-72.5 -26q-42 0 -70 26t-28 67q0 43 28 69t70 26q45 0 72.5 -26t27.5 -69z" />
    <glyph glyph-name="Amacron" unicode="&#x100;" horiz-adv-x="748" 
d="M216 282h305l49 -149h-404zM538 0l-168 510l-173 -510h-191l266 718h207l263 -718h-204zM550 763h-349v110h349v-110z" />
    <glyph glyph-name="amacron" unicode="&#x101;" horiz-adv-x="560" 
d="M371 0v52q-28 -32 -65 -47t-89 -15q-84 0 -135.5 46.5t-51.5 122.5q0 79 62 120.5t177 41.5q22 0 42 -1.5t37 -4.5v26q0 35 -19.5 54t-55.5 19q-35 0 -55.5 -19t-25.5 -54h-154q5 63 36 109.5t82.5 72t117.5 25.5q111 0 173 -57t62 -159v-332h-138zM191 164
q0 -26 17.5 -41t48.5 -15q43 0 67 19t24 52v34q-19 4 -35 5.5t-33 1.5q-43 0 -66 -14t-23 -42zM453 583h-349v110h349v-110z" />
    <glyph glyph-name="Abreve" unicode="&#x102;" horiz-adv-x="748" 
d="M216 282h305l49 -149h-404zM538 0l-168 510l-173 -510h-191l266 718h207l263 -718h-204zM443 913h119q0 -77 -50 -122t-137 -45q-88 0 -138 45t-50 122h120q0 -29 18.5 -44.5t49.5 -15.5q32 0 50 15.5t18 44.5z" />
    <glyph glyph-name="abreve" unicode="&#x103;" horiz-adv-x="560" 
d="M371 0v52q-28 -32 -65 -47t-89 -15q-84 0 -135.5 46.5t-51.5 122.5q0 79 62 120.5t177 41.5q22 0 42 -1.5t37 -4.5v26q0 35 -19.5 54t-55.5 19q-35 0 -55.5 -19t-25.5 -54h-154q5 63 36 109.5t82.5 72t117.5 25.5q111 0 173 -57t62 -159v-332h-138zM191 164
q0 -26 17.5 -41t48.5 -15q43 0 67 19t24 52v34q-19 4 -35 5.5t-33 1.5q-43 0 -66 -14t-23 -42zM346 733h119q0 -77 -50 -122t-137 -45q-88 0 -138 45t-50 122h120q0 -29 18.5 -44.5t49.5 -15.5q32 0 50 15.5t18 44.5z" />
    <glyph glyph-name="Aogonek" unicode="&#x104;" horiz-adv-x="748" 
d="M216 282h305l49 -149h-404zM538 0l-168 510l-173 -510h-191l266 718h207l263 -718h-204zM673 -75v-111q-38 -11 -71 -11q-53 0 -91 26.5t-38 81.5q0 50 38 91t105 96l47 -52q-26 -19 -42.5 -40t-16.5 -44q0 -21 10.5 -32t28.5 -11q14 0 30 6z" />
    <glyph glyph-name="aogonek" unicode="&#x105;" horiz-adv-x="560" 
d="M371 0v52q-28 -32 -65 -47t-89 -15q-84 0 -135.5 46.5t-51.5 122.5q0 79 62 120.5t177 41.5q22 0 42 -1.5t37 -4.5v26q0 35 -19.5 54t-55.5 19q-35 0 -55.5 -19t-25.5 -54h-154q5 63 36 109.5t82.5 72t117.5 25.5q111 0 173 -57t62 -159v-332h-138zM191 164
q0 -26 17.5 -41t48.5 -15q43 0 67 19t24 52v34q-19 4 -35 5.5t-33 1.5q-43 0 -66 -14t-23 -42zM506 -75v-111q-38 -11 -71 -11q-53 0 -91 26.5t-38 81.5q0 50 38 91t105 96l47 -52q-26 -19 -42.5 -40t-16.5 -44q0 -21 10.5 -32t28.5 -11q14 0 30 6z" />
    <glyph glyph-name="Cacute" unicode="&#x106;" horiz-adv-x="793" 
d="M393 -15q-76 0 -142.5 28.5t-116.5 80t-78 119.5t-28 147t28 146.5t78 118.5t116.5 79.5t142.5 28.5q99 0 179 -40.5t131 -113t62 -167.5h-200q-7 45 -31 79.5t-59.5 53.5t-79.5 19q-40 0 -72 -14.5t-54.5 -41.5t-34.5 -64.5t-12 -83.5t12 -84t34.5 -65t54.5 -42t72 -15
q44 0 79.5 19.5t59 54t31.5 79.5h200q-12 -96 -63 -168.5t-130.5 -113t-178.5 -40.5zM483 751h-176l100 162h197z" />
    <glyph glyph-name="cacute" unicode="&#x107;" horiz-adv-x="588" 
d="M293 -10q-80 0 -141 35.5t-95.5 98.5t-34.5 145q0 80 35.5 143t97 99.5t138.5 36.5q74 0 133 -31.5t96 -87.5t44 -131h-182q-2 44 -26.5 70t-63.5 26q-30 0 -51 -15t-32.5 -42.5t-11.5 -67.5t11 -68.5t32.5 -43t51.5 -14.5q40 0 63.5 25.5t26.5 71.5h182q-7 -77 -43 -133
t-94.5 -86.5t-135.5 -30.5zM381 571h-176l100 162h197z" />
    <glyph glyph-name="Ccaron" unicode="&#x10c;" horiz-adv-x="793" 
d="M393 -15q-76 0 -142.5 28.5t-116.5 80t-78 119.5t-28 147t28 146.5t78 118.5t116.5 79.5t142.5 28.5q99 0 179 -40.5t131 -113t62 -167.5h-200q-7 45 -31 79.5t-59.5 53.5t-79.5 19q-40 0 -72 -14.5t-54.5 -41.5t-34.5 -64.5t-12 -83.5t12 -84t34.5 -65t54.5 -42t72 -15
q44 0 79.5 19.5t59 54t31.5 79.5h200q-12 -96 -63 -168.5t-130.5 -113t-178.5 -40.5zM501 751h-217l-141 162h188l61 -74l62 74h187z" />
    <glyph glyph-name="ccaron" unicode="&#x10d;" horiz-adv-x="588" 
d="M293 -10q-80 0 -141 35.5t-95.5 98.5t-34.5 145q0 80 35.5 143t97 99.5t138.5 36.5q74 0 133 -31.5t96 -87.5t44 -131h-182q-2 44 -26.5 70t-63.5 26q-30 0 -51 -15t-32.5 -42.5t-11.5 -67.5t11 -68.5t32.5 -43t51.5 -14.5q40 0 63.5 25.5t26.5 71.5h182q-7 -77 -43 -133
t-94.5 -86.5t-135.5 -30.5zM399 571h-217l-141 162h188l61 -74l62 74h187z" />
    <glyph glyph-name="Dcaron" unicode="&#x10e;" horiz-adv-x="748" 
d="M350 0h-280v718h280q114 0 197 -45t128 -125t45 -185q0 -104 -46 -186.5t-129.5 -129.5t-194.5 -47zM259 555v-392h80q63 0 104.5 22t62 66.5t20.5 111.5q0 64 -21 106.5t-62.5 64t-103.5 21.5h-80zM490 751h-217l-141 162h188l61 -74l62 74h187z" />
    <glyph glyph-name="dcaron" unicode="&#x10f;" horiz-adv-x="635" 
d="M22 269q0 78 30 141.5t84 100.5t126 37q42 0 78.5 -15t67.5 -45v230h171v-718h-157v61q-33 -34 -73 -52.5t-87 -18.5q-72 0 -126 37.5t-84 101t-30 140.5zM200 269q0 -63 32 -94t71 -31q27 0 50.5 14t38 42t14.5 70q0 43 -15 70.5t-38.5 40.5t-49.5 13q-39 0 -71 -30
t-32 -95zM715 560h-113v158h140z" />
    <glyph glyph-name="Dcroat" unicode="&#x110;" horiz-adv-x="772" 
d="M374 0h-280v718h280q114 0 197 -45t128 -125t45 -185q0 -104 -46 -186.5t-129.5 -129.5t-194.5 -47zM283 555v-392h80q63 0 104.5 22t62 66.5t20.5 111.5q0 64 -21 106.5t-62.5 64t-103.5 21.5h-80zM420 292h-414v154h414v-154z" />
    <glyph glyph-name="dcroat" unicode="&#x111;" horiz-adv-x="635" 
d="M22 269q0 78 30 141.5t84 100.5t126 37q42 0 78.5 -15t67.5 -45v230h171v-718h-157v61q-33 -34 -73 -52.5t-87 -18.5q-72 0 -126 37.5t-84 101t-30 140.5zM200 269q0 -63 32 -94t71 -31q27 0 50.5 14t38 42t14.5 70q0 43 -15 70.5t-38.5 40.5t-49.5 13q-39 0 -71 -30
t-32 -95zM648 581h-391v110h391v-110z" />
    <glyph glyph-name="Emacron" unicode="&#x112;" horiz-adv-x="616" 
d="M578 164v-164h-508v718h501v-164h-312v-103h283v-164h-283v-123h319zM498 763h-349v110h349v-110z" />
    <glyph glyph-name="emacron" unicode="&#x113;" horiz-adv-x="591" 
d="M299 -9q-83 0 -145.5 35t-97 98t-34.5 146q0 81 35.5 143.5t98 98.5t142.5 36q67 0 121 -25t90.5 -69.5t51.5 -103t3 -124.5h-439v107h256q-1 41 -25 65t-62 24q-33 0 -54.5 -16.5t-32.5 -50.5t-11 -86q0 -48 11 -80.5t33 -48.5t55 -16q36 0 60 15t35 44h171
q-25 -92 -93 -142t-169 -50zM464 583h-349v110h349v-110z" />
    <glyph glyph-name="Edotaccent" unicode="&#x116;" horiz-adv-x="616" 
d="M578 164v-164h-508v718h501v-164h-312v-103h283v-164h-283v-123h319zM432 843q0 -42 -30.5 -69.5t-79.5 -27.5t-79.5 27.5t-30.5 69.5q0 43 30.5 70.5t79.5 27.5t79.5 -27.5t30.5 -70.5z" />
    <glyph glyph-name="edotaccent" unicode="&#x117;" horiz-adv-x="591" 
d="M299 -9q-83 0 -145.5 35t-97 98t-34.5 146q0 81 35.5 143.5t98 98.5t142.5 36q67 0 121 -25t90.5 -69.5t51.5 -103t3 -124.5h-439v107h256q-1 41 -25 65t-62 24q-33 0 -54.5 -16.5t-32.5 -50.5t-11 -86q0 -48 11 -80.5t33 -48.5t55 -16q36 0 60 15t35 44h171
q-25 -92 -93 -142t-169 -50zM398 663q0 -42 -30.5 -69.5t-79.5 -27.5t-79.5 27.5t-30.5 69.5q0 43 30.5 70.5t79.5 27.5t79.5 -27.5t30.5 -70.5z" />
    <glyph glyph-name="Eogonek" unicode="&#x118;" horiz-adv-x="616" 
d="M578 164v-164h-508v718h501v-164h-312v-103h283v-164h-283v-123h319zM542 -75v-111q-38 -11 -71 -11q-53 0 -91 26.5t-38 81.5q0 50 38 91t105 96l47 -52q-26 -19 -42.5 -40t-16.5 -44q0 -21 10.5 -32t28.5 -11q14 0 30 6z" />
    <glyph glyph-name="eogonek" unicode="&#x119;" horiz-adv-x="591" 
d="M299 -9q-83 0 -145.5 35t-97 98t-34.5 146q0 81 35.5 143.5t98 98.5t142.5 36q67 0 121 -25t90.5 -69.5t51.5 -103t3 -124.5h-439v107h256q-1 41 -25 65t-62 24q-33 0 -54.5 -16.5t-32.5 -50.5t-11 -86q0 -48 11 -80.5t33 -48.5t55 -16q36 0 60 15t35 44h171
q-25 -92 -93 -142t-169 -50zM484 -75v-111q-38 -11 -71 -11q-53 0 -91 26.5t-38 81.5q0 50 38 91t105 96l47 -52q-26 -19 -42.5 -40t-16.5 -44q0 -21 10.5 -32t28.5 -11q14 0 30 6z" />
    <glyph glyph-name="Ecaron" unicode="&#x11a;" horiz-adv-x="616" 
d="M578 164v-164h-508v718h501v-164h-312v-103h283v-164h-283v-123h319zM432 751h-217l-141 162h188l61 -74l62 74h187z" />
    <glyph glyph-name="ecaron" unicode="&#x11b;" horiz-adv-x="591" 
d="M299 -9q-83 0 -145.5 35t-97 98t-34.5 146q0 81 35.5 143.5t98 98.5t142.5 36q67 0 121 -25t90.5 -69.5t51.5 -103t3 -124.5h-439v107h256q-1 41 -25 65t-62 24q-33 0 -54.5 -16.5t-32.5 -50.5t-11 -86q0 -48 11 -80.5t33 -48.5t55 -16q36 0 60 15t35 44h171
q-25 -92 -93 -142t-169 -50zM398 571h-217l-141 162h188l61 -74l62 74h187z" />
    <glyph glyph-name="Gbreve" unicode="&#x11e;" horiz-adv-x="796" 
d="M401 -15q-78 0 -146 27.5t-119 77.5t-79.5 119.5t-28.5 153.5q0 80 27.5 147t77 117.5t116.5 78t146 27.5q90 0 163 -32.5t124 -92t76 -140.5h-224q-9 28 -29 49.5t-49 34t-66 12.5q-46 0 -84.5 -22t-61 -67.5t-22.5 -116.5q0 -60 20 -108t62 -76.5t107 -28.5
q41 0 71.5 14t51.5 38t31 54h-173v149h375q6 -89 -17 -164.5t-71 -132t-118.5 -87.5t-159.5 -31zM463 913h119q0 -77 -50 -122t-137 -45q-88 0 -138 45t-50 122h120q0 -29 18.5 -44.5t49.5 -15.5q32 0 50 15.5t18 44.5z" />
    <glyph glyph-name="gbreve" unicode="&#x11f;" horiz-adv-x="619" 
d="M296 -203q-74 0 -131 25.5t-90 72.5t-36 109h166q5 -36 27.5 -55t62.5 -19q48 0 72.5 25t24.5 74v63q-21 -30 -57 -47t-80 -17q-65 0 -118 34.5t-84 93.5t-31 132q0 76 29 134.5t80 92t117 33.5q51 0 89 -15.5t69 -49.5v55h157v-507q0 -109 -71.5 -171.5t-195.5 -62.5z
M195 287q0 -50 26 -80t69 -30q30 0 52.5 14t35 39t12.5 58q0 50 -27.5 80.5t-72.5 30.5q-43 0 -69 -30.5t-26 -81.5zM366 733h119q0 -77 -50 -122t-137 -45q-88 0 -138 45t-50 122h120q0 -29 18.5 -44.5t49.5 -15.5q32 0 50 15.5t18 44.5z" />
    <glyph glyph-name="Gcommaaccent" unicode="&#x122;" horiz-adv-x="796" 
d="M401 -15q-78 0 -146 27.5t-119 77.5t-79.5 119.5t-28.5 153.5q0 80 27.5 147t77 117.5t116.5 78t146 27.5q90 0 163 -32.5t124 -92t76 -140.5h-224q-9 28 -29 49.5t-49 34t-66 12.5q-46 0 -84.5 -22t-61 -67.5t-22.5 -116.5q0 -60 20 -108t62 -76.5t107 -28.5
q41 0 71.5 14t51.5 38t31 54h-173v149h375q6 -89 -17 -164.5t-71 -132t-118.5 -87.5t-159.5 -31zM486 -113q0 -42 -26.5 -72.5t-69.5 -44.5t-94 -6v60q38 -6 64.5 1t34.5 28q-37 -8 -64 9.5t-27 45.5q0 29 23 47t63 18q41 0 68.5 -23t27.5 -63z" />
    <glyph glyph-name="gcommaaccent" unicode="&#x123;" horiz-adv-x="619" 
d="M296 -203q-74 0 -131 25.5t-90 72.5t-36 109h166q5 -36 27.5 -55t62.5 -19q48 0 72.5 25t24.5 74v63q-21 -30 -57 -47t-80 -17q-65 0 -118 34.5t-84 93.5t-31 132q0 76 29 134.5t80 92t117 33.5q51 0 89 -15.5t69 -49.5v55h157v-507q0 -109 -71.5 -171.5t-195.5 -62.5z
M195 287q0 -50 26 -80t69 -30q30 0 52.5 14t35 39t12.5 58q0 50 -27.5 80.5t-72.5 30.5q-43 0 -69 -30.5t-26 -81.5zM207 651q0 42 26.5 72.5t69.5 44.5t94 6v-60q-37 6 -64 -1t-35 -28q5 2 11 2h11q29 0 49 -16.5t20 -40.5q0 -29 -23 -47t-63 -18q-41 0 -68.5 23t-27.5 63z
" />
    <glyph glyph-name="Imacron" unicode="&#x12a;" horiz-adv-x="329" 
d="M259 0h-189v718h189v-718zM341 763h-349v110h349v-110z" />
    <glyph glyph-name="imacron" unicode="&#x12b;" horiz-adv-x="283" 
d="M227 0h-171v538h171v-538zM316 583h-349v110h349v-110z" />
    <glyph glyph-name="Iogonek" unicode="&#x12e;" horiz-adv-x="329" 
d="M259 0h-189v718h189v-718zM205 -75v-111q-38 -11 -71 -11q-53 0 -91 26.5t-38 81.5q0 50 38 91t105 96l47 -52q-26 -19 -42.5 -40t-16.5 -44q0 -21 10.5 -32t28.5 -11q14 0 30 6z" />
    <glyph glyph-name="iogonek" unicode="&#x12f;" horiz-adv-x="283" 
d="M227 0h-171v538h171v-538zM250 663q0 -42 -30.5 -69.5t-79.5 -27.5t-79.5 27.5t-30.5 69.5q0 43 30.5 70.5t79.5 27.5t79.5 -27.5t30.5 -70.5zM191 -75v-111q-38 -11 -71 -11q-53 0 -91 26.5t-38 81.5q0 50 38 91t105 96l47 -52q-26 -19 -42.5 -40t-16.5 -44
q0 -21 10.5 -32t28.5 -11q14 0 30 6z" />
    <glyph glyph-name="Idotaccent" unicode="&#x130;" horiz-adv-x="329" 
d="M259 0h-189v718h189v-718zM275 843q0 -42 -30.5 -69.5t-79.5 -27.5t-79.5 27.5t-30.5 69.5q0 43 30.5 70.5t79.5 27.5t79.5 -27.5t30.5 -70.5z" />
    <glyph glyph-name="dotlessi" unicode="&#x131;" horiz-adv-x="283" 
d="M227 0h-171v538h171v-538z" />
    <glyph glyph-name="Kcommaaccent" unicode="&#x136;" horiz-adv-x="711" 
d="M259 0h-189v718h189v-302l224 302h215l-253 -337l260 -381h-230l-216 324v-324zM449 -113q0 -42 -26.5 -72.5t-69.5 -44.5t-94 -6v60q38 -6 64.5 1t34.5 28q-37 -8 -64 9.5t-27 45.5q0 29 23 47t63 18q41 0 68.5 -23t27.5 -63z" />
    <glyph glyph-name="kcommaaccent" unicode="&#x137;" horiz-adv-x="621" 
d="M227 0h-171v718h171v-398l167 218h197l-199 -255l227 -283h-218l-174 245v-245zM399 -113q0 -42 -26.5 -72.5t-69.5 -44.5t-94 -6v60q38 -6 64.5 1t34.5 28q-37 -8 -64 9.5t-27 45.5q0 29 23 47t63 18q41 0 68.5 -23t27.5 -63z" />
    <glyph glyph-name="Lacute" unicode="&#x139;" horiz-adv-x="591" 
d="M561 0h-491v718h189v-547h302v-171zM263 751h-176l100 162h197z" />
    <glyph glyph-name="lacute" unicode="&#x13a;" horiz-adv-x="285" 
d="M229 0h-173v718h173v-718zM233 751h-176l100 162h197z" />
    <glyph glyph-name="Lcommaaccent" unicode="&#x13b;" horiz-adv-x="591" 
d="M561 0h-491v718h189v-547h302v-171zM398 -113q0 -42 -26.5 -72.5t-69.5 -44.5t-94 -6v60q38 -6 64.5 1t34.5 28q-37 -8 -64 9.5t-27 45.5q0 29 23 47t63 18q41 0 68.5 -23t27.5 -63z" />
    <glyph glyph-name="lcommaaccent" unicode="&#x13c;" horiz-adv-x="285" 
d="M229 0h-173v718h173v-718zM233 -113q0 -42 -26 -72.5t-69.5 -44.5t-94.5 -6v60q38 -6 64.5 1t34.5 28q-37 -8 -64 9.5t-27 45.5q0 29 23 47t63 18q41 0 68.5 -23t27.5 -63z" />
    <glyph glyph-name="Lcaron" unicode="&#x13d;" horiz-adv-x="591" 
d="M561 0h-491v718h189v-547h302v-171zM429 560h-113v158h140z" />
    <glyph glyph-name="lcaron" unicode="&#x13e;" horiz-adv-x="285" 
d="M229 0h-173v718h173v-718zM365 560h-113v158h140z" />
    <glyph glyph-name="Lslash" unicode="&#x141;" horiz-adv-x="591" 
d="M561 0h-491v718h189v-547h302v-171zM459 348l-475 -111v150l475 110v-149z" />
    <glyph glyph-name="lslash" unicode="&#x142;" horiz-adv-x="285" 
d="M229 0h-173v718h173v-718zM309 329l-337 -72v142l337 73v-143z" />
    <glyph glyph-name="Nacute" unicode="&#x143;" horiz-adv-x="781" 
d="M529 0l-286 448v-448h-173v718h203l265 -415v415h173v-718h-182zM481 751h-176l100 162h197z" />
    <glyph glyph-name="nacute" unicode="&#x144;" horiz-adv-x="605" 
d="M227 283v-283h-171v538h157v-65q32 35 70.5 55t89.5 20q80 0 130.5 -52t50.5 -150v-346h-171v289q0 51 -18.5 78t-57.5 27q-21 0 -39.5 -11t-29.5 -35t-11 -65zM393 571h-176l100 162h197z" />
    <glyph glyph-name="Ncommaaccent" unicode="&#x145;" horiz-adv-x="781" 
d="M529 0l-286 448v-448h-173v718h203l265 -415v415h173v-718h-182zM481 -113q0 -42 -26.5 -72.5t-69.5 -44.5t-94 -6v60q38 -6 64.5 1t34.5 28q-37 -8 -64 9.5t-27 45.5q0 29 23 47t63 18q41 0 68.5 -23t27.5 -63z" />
    <glyph glyph-name="ncommaaccent" unicode="&#x146;" horiz-adv-x="605" 
d="M227 283v-283h-171v538h157v-65q32 35 70.5 55t89.5 20q80 0 130.5 -52t50.5 -150v-346h-171v289q0 51 -18.5 78t-57.5 27q-21 0 -39.5 -11t-29.5 -35t-11 -65zM393 -113q0 -42 -26.5 -72.5t-69.5 -44.5t-94 -6v60q38 -6 64.5 1t34.5 28q-37 -8 -64 9.5t-27 45.5
q0 29 23 47t63 18q41 0 68.5 -23t27.5 -63z" />
    <glyph glyph-name="Ncaron" unicode="&#x147;" horiz-adv-x="781" 
d="M529 0l-286 448v-448h-173v718h203l265 -415v415h173v-718h-182zM499 751h-217l-141 162h188l61 -74l62 74h187z" />
    <glyph glyph-name="ncaron" unicode="&#x148;" horiz-adv-x="605" 
d="M227 283v-283h-171v538h157v-65q32 35 70.5 55t89.5 20q80 0 130.5 -52t50.5 -150v-346h-171v289q0 51 -18.5 78t-57.5 27q-21 0 -39.5 -11t-29.5 -35t-11 -65zM411 571h-217l-141 162h188l61 -74l62 74h187z" />
    <glyph glyph-name="Omacron" unicode="&#x14c;" horiz-adv-x="797" 
d="M398 -15q-78 0 -145 27.5t-117.5 78t-79 119t-28.5 150.5t28.5 150t79 118t117.5 77.5t145 27.5t145.5 -27.5t118 -77.5t79 -118t28.5 -150t-28.5 -150.5t-79 -119t-118 -78t-145.5 -27.5zM398 154q42 0 75 16t55.5 44.5t34 66t11.5 79.5t-11.5 79t-34 65t-55.5 44
t-75 16t-75 -16t-55.5 -44t-34 -65t-11.5 -79t11.5 -79.5t34 -66t55.5 -44.5t75 -16zM573 763h-349v110h349v-110z" />
    <glyph glyph-name="omacron" unicode="&#x14d;" horiz-adv-x="606" 
d="M303 -10q-60 0 -111 21.5t-89 60t-59.5 89t-21.5 108.5t21.5 108.5t59.5 89t89 60t111 21.5t111 -21.5t89 -60t59.5 -89t21.5 -108.5t-21.5 -108.5t-59.5 -89t-89 -60t-111 -21.5zM303 143q27 0 50.5 14t38 42t14.5 70t-14.5 70t-38 41.5t-50.5 13.5q-26 0 -50 -13.5
t-38.5 -41.5t-14.5 -70t14.5 -70t38.5 -42t50 -14zM478 583h-349v110h349v-110z" />
    <glyph glyph-name="Ohungarumlaut" unicode="&#x150;" horiz-adv-x="797" 
d="M398 -15q-78 0 -145 27.5t-117.5 78t-79 119t-28.5 150.5t28.5 150t79 118t117.5 77.5t145 27.5t145.5 -27.5t118 -77.5t79 -118t28.5 -150t-28.5 -150.5t-79 -119t-118 -78t-145.5 -27.5zM398 154q42 0 75 16t55.5 44.5t34 66t11.5 79.5t-11.5 79t-34 65t-55.5 44
t-75 16t-75 -16t-55.5 -44t-34 -65t-11.5 -79t11.5 -79.5t34 -66t55.5 -44.5t75 -16zM580 751h-165l110 162h176zM354 751h-165l100 162h175z" />
    <glyph glyph-name="ohungarumlaut" unicode="&#x151;" horiz-adv-x="606" 
d="M303 -10q-60 0 -111 21.5t-89 60t-59.5 89t-21.5 108.5t21.5 108.5t59.5 89t89 60t111 21.5t111 -21.5t89 -60t59.5 -89t21.5 -108.5t-21.5 -108.5t-59.5 -89t-89 -60t-111 -21.5zM303 143q27 0 50.5 14t38 42t14.5 70t-14.5 70t-38 41.5t-50.5 13.5q-26 0 -50 -13.5
t-38.5 -41.5t-14.5 -70t14.5 -70t38.5 -42t50 -14zM485 571h-165l110 162h176zM259 571h-165l100 162h175z" />
    <glyph glyph-name="OE" unicode="&#x152;" horiz-adv-x="1063" 
d="M28 360q0 114 45 197.5t121.5 129.5t170.5 46q49 0 100 -13t82 -36v34h471v-163h-304v-104h276v-164h-276v-124h311v-163h-478v39q-39 -26 -85 -40t-97 -14q-94 0 -170.5 46.5t-121.5 130.5t-45 198zM222 360q0 -61 17.5 -107.5t51.5 -72.5t82 -26q49 0 82.5 26
t51.5 72.5t18 107.5q0 62 -18 107.5t-51.5 71t-82.5 25.5q-48 0 -82 -25.5t-51.5 -71t-17.5 -107.5z" />
    <glyph glyph-name="oe" unicode="&#x153;" horiz-adv-x="952" 
d="M22 269q0 82 36 145t97.5 98.5t138.5 35.5q56 0 105 -21.5t84 -59.5q33 38 79 59.5t101 21.5q91 0 155 -42t93 -114.5t15 -165.5h-358q2 -48 25 -75t73 -27q39 0 59 17.5t24 41.5h175q-27 -90 -92.5 -141t-164.5 -51q-55 0 -103 19.5t-82 59.5q-35 -38 -83.5 -59
t-104.5 -21q-77 0 -138.5 35.5t-97.5 98.5t-36 145zM200 269q0 -44 14 -72t37 -41t48 -13q26 0 48.5 13t36.5 41t14 72t-14 71.5t-36.5 40.5t-48.5 13q-25 0 -48 -13t-37 -40.5t-14 -71.5zM663 422q-24 0 -43.5 -9.5t-32 -29t-15.5 -50.5h178q-1 41 -23 65t-64 24z" />
    <glyph glyph-name="Racute" unicode="&#x154;" horiz-adv-x="708" 
d="M259 0h-189v718h294q146 0 225.5 -62.5t79.5 -177.5q0 -69 -39.5 -123.5t-112.5 -85.5l176 -269h-225l-147 239h-62v-239zM259 562v-167h97q63 0 93 20t30 63t-30 63.5t-93 20.5h-97zM447 751h-176l100 162h197z" />
    <glyph glyph-name="racute" unicode="&#x155;" horiz-adv-x="435" 
d="M227 248v-248h-171v538h157v-95q31 47 89.5 73t122.5 26v-178q-60 6 -104.5 1.5t-69 -31t-24.5 -86.5zM346 571h-176l100 162h197z" />
    <glyph glyph-name="Rcommaaccent" unicode="&#x156;" horiz-adv-x="708" 
d="M259 0h-189v718h294q146 0 225.5 -62.5t79.5 -177.5q0 -69 -39.5 -123.5t-112.5 -85.5l176 -269h-225l-147 239h-62v-239zM259 562v-167h97q63 0 93 20t30 63t-30 63.5t-93 20.5h-97zM447 -113q0 -42 -26.5 -72.5t-69.5 -44.5t-94 -6v60q38 -6 64.5 1t34.5 28
q-37 -8 -64 9.5t-27 45.5q0 29 23 47t63 18q41 0 68.5 -23t27.5 -63z" />
    <glyph glyph-name="rcommaaccent" unicode="&#x157;" horiz-adv-x="435" 
d="M227 248v-248h-171v538h157v-95q31 47 89.5 73t122.5 26v-178q-60 6 -104.5 1.5t-69 -31t-24.5 -86.5zM238 -113q0 -42 -26 -72.5t-69.5 -44.5t-94.5 -6v60q38 -6 64.5 1t34.5 28q-37 -8 -64 9.5t-27 45.5q0 29 23 47t63 18q41 0 68.5 -23t27.5 -63z" />
    <glyph glyph-name="Rcaron" unicode="&#x158;" horiz-adv-x="708" 
d="M259 0h-189v718h294q146 0 225.5 -62.5t79.5 -177.5q0 -69 -39.5 -123.5t-112.5 -85.5l176 -269h-225l-147 239h-62v-239zM259 562v-167h97q63 0 93 20t30 63t-30 63.5t-93 20.5h-97zM465 751h-217l-141 162h188l61 -74l62 74h187z" />
    <glyph glyph-name="rcaron" unicode="&#x159;" horiz-adv-x="435" 
d="M227 248v-248h-171v538h157v-95q31 47 89.5 73t122.5 26v-178q-60 6 -104.5 1.5t-69 -31t-24.5 -86.5zM364 571h-217l-141 162h188l61 -74l62 74h187z" />
    <glyph glyph-name="Sacute" unicode="&#x15a;" horiz-adv-x="672" 
d="M645 235q0 -74 -37.5 -129t-105.5 -85.5t-162 -30.5q-93 0 -162.5 31.5t-110 89.5t-47.5 137h191q2 -51 34.5 -81t90.5 -30q33 0 57 8t37.5 24t13.5 38q0 23 -20.5 39.5t-52.5 22.5l-131 25q-43 8 -78 25t-60.5 42.5t-39 60t-13.5 77.5q0 67 36 118.5t99 80.5t144 29
q86 0 152.5 -31t107 -87.5t45.5 -134.5h-191q-2 33 -17 57t-39 37t-56 13q-28 0 -48 -9t-31 -24.5t-11 -35.5q0 -16 9.5 -27.5t25.5 -19t35 -11.5l139 -27q96 -19 146 -66.5t50 -125.5zM422 751h-176l100 162h197z" />
    <glyph glyph-name="sacute" unicode="&#x15b;" horiz-adv-x="560" 
d="M533 183q0 -89 -64 -141t-186 -52q-121 0 -187 53.5t-74 146.5h164q0 -34 28 -54t72 -20q29 0 51.5 8t22.5 29q0 18 -13.5 27t-41.5 14l-106 19q-70 13 -112 53t-42 105q0 52 28 92t79.5 62.5t121.5 22.5q71 0 125 -23.5t86.5 -67.5t37.5 -104h-164q-3 32 -26 50.5
t-58 18.5q-30 0 -48 -8.5t-18 -26.5q0 -17 13 -24t38 -12l114 -21q78 -14 118.5 -51.5t40.5 -95.5zM371 572h-176l100 162h197z" />
    <glyph glyph-name="Scedilla" unicode="&#x15e;" horiz-adv-x="672" 
d="M645 235q0 -74 -37.5 -129t-105.5 -85.5t-162 -30.5q-93 0 -162.5 31.5t-110 89.5t-47.5 137h191q2 -51 34.5 -81t90.5 -30q33 0 57 8t37.5 24t13.5 38q0 23 -20.5 39.5t-52.5 22.5l-131 25q-43 8 -78 25t-60.5 42.5t-39 60t-13.5 77.5q0 67 36 118.5t99 80.5t144 29
q86 0 152.5 -31t107 -87.5t45.5 -134.5h-191q-2 33 -17 57t-39 37t-56 13q-28 0 -48 -9t-31 -24.5t-11 -35.5q0 -16 9.5 -27.5t25.5 -19t35 -11.5l139 -27q96 -19 146 -66.5t50 -125.5zM463 -110q0 -39 -36.5 -63.5t-95.5 -24.5q-60 0 -95.5 26t-41.5 75h103
q2 -13 8.5 -18.5t18.5 -5.5q11 0 18 6t7 16q0 12 -7.5 19t-23 9t-40.5 -1l22 91h81l-13 -49q44 -6 69.5 -27.5t25.5 -52.5z" />
    <glyph glyph-name="scedilla" unicode="&#x15f;" horiz-adv-x="560" 
d="M533 183q0 -89 -64 -141t-186 -52q-121 0 -187 53.5t-74 146.5h164q0 -34 28 -54t72 -20q29 0 51.5 8t22.5 29q0 18 -13.5 27t-41.5 14l-106 19q-70 13 -112 53t-42 105q0 52 28 92t79.5 62.5t121.5 22.5q71 0 125 -23.5t86.5 -67.5t37.5 -104h-164q-3 32 -26 50.5
t-58 18.5q-30 0 -48 -8.5t-18 -26.5q0 -17 13 -24t38 -12l114 -21q78 -14 118.5 -51.5t40.5 -95.5zM409 -110q0 -39 -36.5 -63.5t-95.5 -24.5q-60 0 -95.5 26t-41.5 75h103q2 -13 8.5 -18.5t18.5 -5.5q11 0 18 6t7 16q0 12 -7.5 19t-23 9t-40.5 -1l22 91h81l-13 -49
q44 -6 69.5 -27.5t25.5 -52.5z" />
    <glyph glyph-name="Scaron" unicode="&#x160;" horiz-adv-x="672" 
d="M645 235q0 -74 -37.5 -129t-105.5 -85.5t-162 -30.5q-93 0 -162.5 31.5t-110 89.5t-47.5 137h191q2 -51 34.5 -81t90.5 -30q33 0 57 8t37.5 24t13.5 38q0 23 -20.5 39.5t-52.5 22.5l-131 25q-43 8 -78 25t-60.5 42.5t-39 60t-13.5 77.5q0 67 36 118.5t99 80.5t144 29
q86 0 152.5 -31t107 -87.5t45.5 -134.5h-191q-2 33 -17 57t-39 37t-56 13q-28 0 -48 -9t-31 -24.5t-11 -35.5q0 -16 9.5 -27.5t25.5 -19t35 -11.5l139 -27q96 -19 146 -66.5t50 -125.5zM440 751h-217l-141 162h188l61 -74l62 74h187z" />
    <glyph glyph-name="scaron" unicode="&#x161;" horiz-adv-x="560" 
d="M533 183q0 -89 -64 -141t-186 -52q-121 0 -187 53.5t-74 146.5h164q0 -34 28 -54t72 -20q29 0 51.5 8t22.5 29q0 18 -13.5 27t-41.5 14l-106 19q-70 13 -112 53t-42 105q0 52 28 92t79.5 62.5t121.5 22.5q71 0 125 -23.5t86.5 -67.5t37.5 -104h-164q-3 32 -26 50.5
t-58 18.5q-30 0 -48 -8.5t-18 -26.5q0 -17 13 -24t38 -12l114 -21q78 -14 118.5 -51.5t40.5 -95.5zM389 572h-217l-141 162h188l61 -74l62 74h187z" />
    <glyph glyph-name="Tcedilla" unicode="&#x162;" horiz-adv-x="659" 
d="M424 0h-189v547h-220v171h629v-171h-220v-547zM454 -110q0 -39 -36.5 -63.5t-95.5 -24.5q-60 0 -95.5 26t-41.5 75h103q2 -13 8.5 -18.5t18.5 -5.5q11 0 18 6t7 16q0 12 -7.5 19t-23 9t-40.5 -1l22 91h81l-13 -49q44 -6 69.5 -27.5t25.5 -52.5z" />
    <glyph glyph-name="tcedilla" unicode="&#x163;" horiz-adv-x="441" 
d="M417 168v-149q-28 -16 -57 -22.5t-65 -6.5q-60 0 -103 23t-66 67t-23 105v204h-100v149h100v158h171v-158h147v-149h-147v-164q0 -39 17 -57.5t52 -18.5q21 0 40.5 5t33.5 14zM391 -110q0 -39 -36.5 -63.5t-95.5 -24.5q-60 0 -95.5 26t-41.5 75h103q2 -13 8.5 -18.5
t18.5 -5.5q11 0 18 6t7 16q0 12 -7.5 19t-23 9t-40.5 -1l22 91h81l-13 -49q44 -6 69.5 -27.5t25.5 -52.5z" />
    <glyph glyph-name="Tcaron" unicode="&#x164;" horiz-adv-x="659" 
d="M424 0h-189v547h-220v171h629v-171h-220v-547zM438 751h-217l-141 162h188l61 -74l62 74h187z" />
    <glyph glyph-name="tcaron" unicode="&#x165;" horiz-adv-x="441" 
d="M417 168v-149q-28 -16 -57 -22.5t-65 -6.5q-60 0 -103 23t-66 67t-23 105v204h-100v149h100v158h171v-158h147v-149h-147v-164q0 -39 17 -57.5t52 -18.5q21 0 40.5 5t33.5 14zM410 560h-113v158h140z" />
    <glyph glyph-name="Umacron" unicode="&#x16a;" horiz-adv-x="759" 
d="M691 718v-432q0 -87 -35.5 -155t-105 -107t-170.5 -39q-102 0 -171.5 39t-105 107t-35.5 155v432h189v-435q0 -37 11 -66.5t37.5 -46t74.5 -16.5t74.5 16.5t37 46t10.5 66.5v435h189zM555 763h-349v110h349v-110z" />
    <glyph glyph-name="umacron" unicode="&#x16b;" horiz-adv-x="602" 
d="M375 231v307h171v-538h-157v58q-22 -30 -62.5 -49t-87.5 -19q-53 0 -96 22.5t-67.5 69t-24.5 117.5v339h171v-307q0 -44 20.5 -66t56.5 -22q17 0 34.5 9.5t29.5 29t12 49.5zM475 583h-349v110h349v-110z" />
    <glyph glyph-name="Uring" unicode="&#x16e;" horiz-adv-x="759" 
d="M691 718v-432q0 -87 -35.5 -155t-105 -107t-170.5 -39q-102 0 -171.5 39t-105 107t-35.5 155v432h189v-435q0 -37 11 -66.5t37.5 -46t74.5 -16.5t74.5 16.5t37 46t10.5 66.5v435h189zM380 746q-43 0 -76 18t-51 48t-18 65q0 37 18 67t51 48t76 18t76 -18t51.5 -48
t18.5 -67q0 -35 -18.5 -65t-51.5 -48t-76 -18zM380 830q20 0 34 11t14 36q0 26 -14 38t-34 12q-18 0 -33.5 -12t-15.5 -38q0 -25 15.5 -36t33.5 -11z" />
    <glyph glyph-name="uring" unicode="&#x16f;" horiz-adv-x="602" 
d="M375 231v307h171v-538h-157v58q-22 -30 -62.5 -49t-87.5 -19q-53 0 -96 22.5t-67.5 69t-24.5 117.5v339h171v-307q0 -44 20.5 -66t56.5 -22q17 0 34.5 9.5t29.5 29t12 49.5zM300 566q-43 0 -76 18t-51 48t-18 65q0 37 18 67t51 48t76 18t76 -18t51.5 -48t18.5 -67
q0 -35 -18.5 -65t-51.5 -48t-76 -18zM300 650q20 0 34 11t14 36q0 26 -14 38t-34 12q-18 0 -33.5 -12t-15.5 -38q0 -25 15.5 -36t33.5 -11z" />
    <glyph glyph-name="Uhungarumlaut" unicode="&#x170;" horiz-adv-x="759" 
d="M691 718v-432q0 -87 -35.5 -155t-105 -107t-170.5 -39q-102 0 -171.5 39t-105 107t-35.5 155v432h189v-435q0 -37 11 -66.5t37.5 -46t74.5 -16.5t74.5 16.5t37 46t10.5 66.5v435h189zM562 751h-165l110 162h176zM336 751h-165l100 162h175z" />
    <glyph glyph-name="uhungarumlaut" unicode="&#x171;" horiz-adv-x="602" 
d="M375 231v307h171v-538h-157v58q-22 -30 -62.5 -49t-87.5 -19q-53 0 -96 22.5t-67.5 69t-24.5 117.5v339h171v-307q0 -44 20.5 -66t56.5 -22q17 0 34.5 9.5t29.5 29t12 49.5zM482 571h-165l110 162h176zM256 571h-165l100 162h175z" />
    <glyph glyph-name="Uogonek" unicode="&#x172;" horiz-adv-x="759" 
d="M691 718v-432q0 -87 -35.5 -155t-105 -107t-170.5 -39q-102 0 -171.5 39t-105 107t-35.5 155v432h189v-435q0 -37 11 -66.5t37.5 -46t74.5 -16.5t74.5 16.5t37 46t10.5 66.5v435h189zM593 -75v-111q-38 -11 -71 -11q-53 0 -91 26.5t-38 81.5q0 50 38 91t105 96l47 -52
q-26 -19 -42.5 -40t-16.5 -44q0 -21 10.5 -32t28.5 -11q14 0 30 6z" />
    <glyph glyph-name="uogonek" unicode="&#x173;" horiz-adv-x="602" 
d="M375 231v307h171v-538h-157v58q-22 -30 -62.5 -49t-87.5 -19q-53 0 -96 22.5t-67.5 69t-24.5 117.5v339h171v-307q0 -44 20.5 -66t56.5 -22q17 0 34.5 9.5t29.5 29t12 49.5zM524 -75v-111q-38 -11 -71 -11q-53 0 -91 26.5t-38 81.5q0 50 38 91t105 96l47 -52
q-26 -19 -42.5 -40t-16.5 -44q0 -21 10.5 -32t28.5 -11q14 0 30 6z" />
    <glyph glyph-name="Wcircumflex" unicode="&#x174;" horiz-adv-x="992" 
d="M613 0l-117 447l-117 -447h-191l-182 718h185l97 -428l114 428h191l110 -430l98 430h185l-183 -718h-190zM435 751h-188l141 162h217l140 -162h-187l-62 74z" />
    <glyph glyph-name="wcircumflex" unicode="&#x175;" horiz-adv-x="820" 
d="M493 0l-83 305l-83 -305h-171l-151 538h167l75 -295l79 295h171l75 -295l75 295h168l-152 -538h-170zM349 571h-188l141 162h217l140 -162h-187l-62 74z" />
    <glyph glyph-name="Ycircumflex" unicode="&#x176;" horiz-adv-x="701" 
d="M444 270v-270h-189v270l-251 448h204l148 -275l151 275h190zM295 751h-188l141 162h217l140 -162h-187l-62 74z" />
    <glyph glyph-name="ycircumflex" unicode="&#x177;" horiz-adv-x="568" 
d="M573 538l-256 -731h-187l75 199l-210 532h186l116 -333l104 333h172zM224 571h-188l141 162h217l140 -162h-187l-62 74z" />
    <glyph glyph-name="Ydieresis" unicode="&#x178;" horiz-adv-x="701" 
d="M444 270v-270h-189v270l-251 448h204l148 -275l151 275h190zM576 839q0 -41 -28 -67t-70 -26q-44 0 -72 26t-28 67q0 43 28 69t72 26q42 0 70 -26t28 -69zM334 839q0 -41 -27.5 -67t-72.5 -26q-42 0 -70 26t-28 67q0 43 28 69t70 26q45 0 72.5 -26t27.5 -69z" />
    <glyph glyph-name="Zacute" unicode="&#x179;" horiz-adv-x="665" 
d="M627 0h-585v151l343 404h-347v163h579v-154l-345 -401h355v-163zM426 751h-176l100 162h197z" />
    <glyph glyph-name="zacute" unicode="&#x17a;" horiz-adv-x="553" 
d="M515 0h-471v141l251 247h-257v150h471v-144l-254 -244h260v-150zM369 571h-176l100 162h197z" />
    <glyph glyph-name="Zdotaccent" unicode="&#x17b;" horiz-adv-x="665" 
d="M627 0h-585v151l343 404h-347v163h579v-154l-345 -401h355v-163zM444 843q0 -42 -30.5 -69.5t-79.5 -27.5t-79.5 27.5t-30.5 69.5q0 43 30.5 70.5t79.5 27.5t79.5 -27.5t30.5 -70.5z" />
    <glyph glyph-name="zdotaccent" unicode="&#x17c;" horiz-adv-x="553" 
d="M515 0h-471v141l251 247h-257v150h471v-144l-254 -244h260v-150zM387 663q0 -42 -30.5 -69.5t-79.5 -27.5t-79.5 27.5t-30.5 69.5q0 43 30.5 70.5t79.5 27.5t79.5 -27.5t30.5 -70.5z" />
    <glyph glyph-name="Zcaron" unicode="&#x17d;" horiz-adv-x="665" 
d="M627 0h-585v151l343 404h-347v163h579v-154l-345 -401h355v-163zM444 751h-217l-141 162h188l61 -74l62 74h187z" />
    <glyph glyph-name="zcaron" unicode="&#x17e;" horiz-adv-x="553" 
d="M515 0h-471v141l251 247h-257v150h471v-144l-254 -244h260v-150zM387 571h-217l-141 162h188l61 -74l62 74h187z" />
    <glyph glyph-name="florin" unicode="&#x192;" horiz-adv-x="546" 
d="M344 269l-28 -123q-15 -65 -42.5 -111t-75 -70t-122.5 -24q-13 0 -27 1t-29 2v158q8 -1 15 -3t14 -2q37 0 64.5 17.5t36.5 57.5l21 97h-131v150h164l19 87q12 57 35.5 92.5t53 54.5t60.5 26t58 7q29 0 49 -3.5t41 -11.5v-134q-11 7 -23 10t-26 3q-24 0 -46.5 -12
t-33.5 -59l-14 -60h123v-150h-156z" />
    <glyph glyph-name="Scommaaccent" unicode="&#x218;" horiz-adv-x="672" 
d="M645 235q0 -74 -37.5 -129t-105.5 -85.5t-162 -30.5q-93 0 -162.5 31.5t-110 89.5t-47.5 137h191q2 -51 34.5 -81t90.5 -30q33 0 57 8t37.5 24t13.5 38q0 23 -20.5 39.5t-52.5 22.5l-131 25q-43 8 -78 25t-60.5 42.5t-39 60t-13.5 77.5q0 67 36 118.5t99 80.5t144 29
q86 0 152.5 -31t107 -87.5t45.5 -134.5h-191q-2 33 -17 57t-39 37t-56 13q-28 0 -48 -9t-31 -24.5t-11 -35.5q0 -16 9.5 -27.5t25.5 -19t35 -11.5l139 -27q96 -19 146 -66.5t50 -125.5zM429 -113q0 -42 -26.5 -72.5t-69.5 -44.5t-94 -6v60q38 -6 64.5 1t34.5 28
q-37 -8 -64 9.5t-27 45.5q0 29 23 47t63 18q41 0 68.5 -23t27.5 -63z" />
    <glyph glyph-name="scommaaccent" unicode="&#x219;" horiz-adv-x="560" 
d="M533 183q0 -89 -64 -141t-186 -52q-121 0 -187 53.5t-74 146.5h164q0 -34 28 -54t72 -20q29 0 51.5 8t22.5 29q0 18 -13.5 27t-41.5 14l-106 19q-70 13 -112 53t-42 105q0 52 28 92t79.5 62.5t121.5 22.5q71 0 125 -23.5t86.5 -67.5t37.5 -104h-164q-3 32 -26 50.5
t-58 18.5q-30 0 -48 -8.5t-18 -26.5q0 -17 13 -24t38 -12l114 -21q78 -14 118.5 -51.5t40.5 -95.5zM375 -113q0 -42 -26.5 -72.5t-69.5 -44.5t-94 -6v60q38 -6 64.5 1t34.5 28q-37 -8 -64 9.5t-27 45.5q0 29 23 47t63 18q41 0 68.5 -23t27.5 -63z" />
    <glyph glyph-name="Tcommaaccent" unicode="&#x21a;" horiz-adv-x="659" 
d="M424 0h-189v547h-220v171h629v-171h-220v-547zM420 -113q0 -42 -26.5 -72.5t-69.5 -44.5t-94 -6v60q38 -6 64.5 1t34.5 28q-37 -8 -64 9.5t-27 45.5q0 29 23 47t63 18q41 0 68.5 -23t27.5 -63z" />
    <glyph glyph-name="tcommaaccent" unicode="&#x21b;" horiz-adv-x="441" 
d="M417 168v-149q-28 -16 -57 -22.5t-65 -6.5q-60 0 -103 23t-66 67t-23 105v204h-100v149h100v158h171v-158h147v-149h-147v-164q0 -39 17 -57.5t52 -18.5q21 0 40.5 5t33.5 14zM357 -113q0 -42 -26.5 -72.5t-69.5 -44.5t-94 -6v60q38 -6 64.5 1t34.5 28q-37 -8 -64 9.5
t-27 45.5q0 29 23 47t63 18q41 0 68.5 -23t27.5 -63z" />
    <glyph glyph-name="dotlessj" unicode="&#x237;" horiz-adv-x="282" 
d="M226 538v-511q0 -82 -26.5 -133t-72 -74t-103.5 -23q-20 0 -40 2t-40 9v161q11 -7 26 -10t32 -3q23 0 38 16.5t15 59.5v506h171z" />
    <glyph glyph-name="circumflex" unicode="&#x2c6;" 
d="M189 571h-188l141 162h217l140 -162h-187l-62 74z" />
    <glyph glyph-name="caron" unicode="&#x2c7;" 
d="M359 571h-217l-141 162h188l61 -74l62 74h187z" />
    <glyph glyph-name="macronmod" unicode="&#x2c9;" 
d="M425 568h-349v110h349v-110z" />
    <glyph glyph-name="breve" unicode="&#x2d8;" 
d="M318 733h119q0 -77 -50 -122t-137 -45q-88 0 -138 45t-50 122h120q0 -29 18.5 -44.5t49.5 -15.5q32 0 50 15.5t18 44.5z" />
    <glyph glyph-name="dotaccent" unicode="&#x2d9;" 
d="M360 663q0 -42 -30.5 -69.5t-79.5 -27.5t-79.5 27.5t-30.5 69.5q0 43 30.5 70.5t79.5 27.5t79.5 -27.5t30.5 -70.5z" />
    <glyph glyph-name="ring" unicode="&#x2da;" 
d="M249 566q-43 0 -76 18t-51 48t-18 65q0 37 18 67t51 48t76 18t76 -18t51.5 -48t18.5 -67q0 -35 -18.5 -65t-51.5 -48t-76 -18zM249 650q20 0 34 11t14 36q0 26 -14 38t-34 12q-18 0 -33.5 -12t-15.5 -38q0 -25 15.5 -36t33.5 -11z" />
    <glyph glyph-name="ogonek" unicode="&#x2db;" 
d="M350 -75v-111q-38 -11 -71 -11q-53 0 -91 26.5t-38 81.5q0 50 38 91t105 96l47 -52q-26 -19 -42.5 -40t-16.5 -44q0 -21 10.5 -32t28.5 -11q14 0 30 6z" />
    <glyph glyph-name="tilde" unicode="&#x2dc;" 
d="M158 568h-103q-9 50 3 87.5t40 59t68 21.5q25 0 48 -5.5t42 -13.5t34.5 -13.5t25.5 -5.5q12 0 20 9t6 37h103q9 -48 -3.5 -86t-41 -60t-68.5 -22q-25 0 -47.5 5.5t-41.5 13.5t-34 13.5t-26 5.5t-18.5 -8.5t-6.5 -37.5z" />
    <glyph glyph-name="hungarumlaut" unicode="&#x2dd;" 
d="M385 571h-165l110 162h176zM159 571h-165l100 162h175z" />
    <glyph glyph-name="gravecomb" unicode="&#x300;" 
d="M398 571h-176l-121 162h198z" />
    <glyph glyph-name="acutecomb" unicode="&#x301;" 
d="M277 571h-176l100 162h197z" />
    <glyph glyph-name="circumflexcomb" unicode="&#x302;" 
d="M189 571h-188l141 162h217l140 -162h-187l-62 74z" />
    <glyph glyph-name="tildecomb" unicode="&#x303;" 
d="M158 568h-103q-9 50 3 87.5t40 59t68 21.5q25 0 48 -5.5t42 -13.5t34.5 -13.5t25.5 -5.5q12 0 20 9t6 37h103q9 -48 -3.5 -86t-41 -60t-68.5 -22q-25 0 -47.5 5.5t-41.5 13.5t-34 13.5t-26 5.5t-18.5 -8.5t-6.5 -37.5z" />
    <glyph glyph-name="macroncomb" unicode="&#x304;" 
d="M425 583h-349v110h349v-110z" />
    <glyph glyph-name="brevecomb" unicode="&#x306;" 
d="M318 733h119q0 -77 -50 -122t-137 -45q-88 0 -138 45t-50 122h120q0 -29 18.5 -44.5t49.5 -15.5q32 0 50 15.5t18 44.5z" />
    <glyph glyph-name="dotaccentcomb" unicode="&#x307;" 
d="M360 663q0 -42 -30.5 -69.5t-79.5 -27.5t-79.5 27.5t-30.5 69.5q0 43 30.5 70.5t79.5 27.5t79.5 -27.5t30.5 -70.5z" />
    <glyph glyph-name="dieresiscomb" unicode="&#x308;" 
d="M470 659q0 -41 -28 -67t-70 -26q-44 0 -72 26t-28 67q0 43 28 69t72 26q42 0 70 -26t28 -69zM228 659q0 -41 -27.5 -67t-72.5 -26q-42 0 -70 26t-28 67q0 43 28 69t70 26q45 0 72.5 -26t27.5 -69z" />
    <glyph glyph-name="ringcomb" unicode="&#x30a;" 
d="M249 566q-43 0 -76 18t-51 48t-18 65q0 37 18 67t51 48t76 18t76 -18t51.5 -48t18.5 -67q0 -35 -18.5 -65t-51.5 -48t-76 -18zM249 650q20 0 34 11t14 36q0 26 -14 38t-34 12q-18 0 -33.5 -12t-15.5 -38q0 -25 15.5 -36t33.5 -11z" />
    <glyph glyph-name="hungarumlautcomb" unicode="&#x30b;" 
d="M385 571h-165l110 162h176zM159 571h-165l100 162h175z" />
    <glyph glyph-name="caroncomb" unicode="&#x30c;" 
d="M359 571h-217l-141 162h188l61 -74l62 74h187z" />
    <glyph glyph-name="commaturnedabovecomb" unicode="&#x312;" 
d="M155 651q0 42 26 72.5t69.5 44.5t94.5 6v-60q-37 6 -64 -1t-35 -28q5 2 11 2h11q29 0 49 -16.5t20 -40.5q0 -29 -23 -47t-63 -18q-41 0 -68.5 23t-27.5 63z" />
    <glyph glyph-name="commaaccentcomb" unicode="&#x326;" 
d="M345 -113q0 -42 -26.5 -72.5t-69.5 -44.5t-94 -6v60q38 -6 64.5 1t34.5 28q-37 -8 -64 9.5t-27 45.5q0 29 23 47t63 18q41 0 68.5 -23t27.5 -63z" />
    <glyph glyph-name="cedillacomb" unicode="&#x327;" 
d="M385 -110q0 -39 -36.5 -63.5t-95.5 -24.5q-60 0 -95.5 26t-41.5 75h103q2 -13 8.5 -18.5t18.5 -5.5q11 0 18 6t7 16q0 12 -7.5 19t-23 9t-40.5 -1l22 91h81l-13 -49q44 -6 69.5 -27.5t25.5 -52.5z" />
    <glyph glyph-name="ogonekcomb" unicode="&#x328;" 
d="M350 -75v-111q-38 -11 -71 -11q-53 0 -91 26.5t-38 81.5q0 50 38 91t105 96l47 -52q-26 -19 -42.5 -40t-16.5 -44q0 -21 10.5 -32t28.5 -11q14 0 30 6z" />
    <glyph glyph-name="strokeshortcomb" unicode="&#x335;" 
d="M446 568h-391v110h391v-110z" />
    <glyph glyph-name="slashshortcomb" unicode="&#x337;" 
d="M419 322l-337 -72v142l337 73v-143z" />
    <glyph glyph-name="slashlongcomb" unicode="&#x338;" 
d="M121 0h-127l385 538h127z" />
    <glyph glyph-name="Delta" unicode="&#x394;" horiz-adv-x="739" 
d="M733 0h-727l267 718h195zM365 525l-128 -377h254z" />
    <glyph glyph-name="Omega" unicode="&#x3a9;" horiz-adv-x="744" 
d="M330 0h-303v161l162 -13v25q-51 25 -88.5 61.5t-58 86.5t-20.5 113q0 81 43.5 147.5t122 106.5t184.5 40t184.5 -40t122 -106.5t43.5 -147.5q0 -63 -20.5 -113t-58 -86.5t-89.5 -61.5v-25l163 13v-161h-303v252q62 17 93.5 60t31.5 96q0 45 -19 82t-56.5 58.5t-91.5 21.5
t-91 -21.5t-56.5 -58.5t-19.5 -82q0 -53 32 -96t93 -60v-252z" />
    <glyph glyph-name="mu" unicode="&#x3bc;" horiz-adv-x="619" 
d="M301 -10q-27 0 -50.5 7.5t-39.5 20.5l14 -211h-169v731h171v-294q0 -50 21.5 -75.5t65.5 -25.5q40 0 59 28.5t19 65.5v301h171v-538h-168v43q-15 -25 -40.5 -39t-53.5 -14z" />
    <glyph glyph-name="pi" unicode="&#x3c0;" horiz-adv-x="644" 
d="M527 -10q-56 0 -93.5 17.5t-56 59t-18.5 113.5v209h-92l-18 -389h-171l33 389h-108v149h621v-149h-94v-170q0 -35 12 -50t40 -15q14 0 23 1.5t15 4.5v-155q-22 -7 -46 -11t-47 -4z" />
    <glyph glyph-name="Wgrave" unicode="&#x1e80;" horiz-adv-x="992" 
d="M613 0l-117 447l-117 -447h-191l-182 718h185l97 -428l114 428h191l110 -430l98 430h185l-183 -718h-190zM581 751h-176l-121 162h198z" />
    <glyph glyph-name="wgrave" unicode="&#x1e81;" horiz-adv-x="820" 
d="M493 0l-83 305l-83 -305h-171l-151 538h167l75 -295l79 295h171l75 -295l75 295h168l-152 -538h-170zM495 571h-176l-121 162h198z" />
    <glyph glyph-name="Wacute" unicode="&#x1e82;" horiz-adv-x="992" 
d="M613 0l-117 447l-117 -447h-191l-182 718h185l97 -428l114 428h191l110 -430l98 430h185l-183 -718h-190zM587 751h-176l100 162h197z" />
    <glyph glyph-name="wacute" unicode="&#x1e83;" horiz-adv-x="820" 
d="M493 0l-83 305l-83 -305h-171l-151 538h167l75 -295l79 295h171l75 -295l75 295h168l-152 -538h-170zM501 571h-176l100 162h197z" />
    <glyph glyph-name="Wdieresis" unicode="&#x1e84;" horiz-adv-x="992" 
d="M613 0l-117 447l-117 -447h-191l-182 718h185l97 -428l114 428h191l110 -430l98 430h185l-183 -718h-190zM716 839q0 -41 -28 -67t-70 -26q-44 0 -72 26t-28 67q0 43 28 69t72 26q42 0 70 -26t28 -69zM474 839q0 -41 -27.5 -67t-72.5 -26q-42 0 -70 26t-28 67q0 43 28 69
t70 26q45 0 72.5 -26t27.5 -69z" />
    <glyph glyph-name="wdieresis" unicode="&#x1e85;" horiz-adv-x="820" 
d="M493 0l-83 305l-83 -305h-171l-151 538h167l75 -295l79 295h171l75 -295l75 295h168l-152 -538h-170zM630 659q0 -41 -28 -67t-70 -26q-44 0 -72 26t-28 67q0 43 28 69t72 26q42 0 70 -26t28 -69zM388 659q0 -41 -27.5 -67t-72.5 -26q-42 0 -70 26t-28 67q0 43 28 69
t70 26q45 0 72.5 -26t27.5 -69z" />
    <glyph glyph-name="Ygrave" unicode="&#x1ef2;" horiz-adv-x="701" 
d="M444 270v-270h-189v270l-251 448h204l148 -275l151 275h190zM441 751h-176l-121 162h198z" />
    <glyph glyph-name="ygrave" unicode="&#x1ef3;" horiz-adv-x="568" 
d="M573 538l-256 -731h-187l75 199l-210 532h186l116 -333l104 333h172zM370 571h-176l-121 162h198z" />
    <glyph glyph-name="endash" unicode="&#x2013;" 
d="M480 199h-460v150h460v-150z" />
    <glyph glyph-name="emdash" unicode="&#x2014;" horiz-adv-x="750" 
d="M730 199h-710v150h710v-150z" />
    <glyph glyph-name="quoteleft" unicode="&#x2018;" horiz-adv-x="274" 
d="M18 536q0 46 20 83.5t53.5 62.5t76.5 35.5t88 2.5v-83q-47 8 -81 -5.5t-46 -49.5q6 2 12 2.5t11 0.5q38 0 62.5 -25t24.5 -60q0 -40 -28.5 -66t-76.5 -26q-51 0 -83.5 33.5t-32.5 94.5z" />
    <glyph glyph-name="quoteright" unicode="&#x2019;" horiz-adv-x="274" 
d="M256 597q0 -46 -20 -83.5t-53.5 -62.5t-76.5 -35.5t-88 -2.5v83q47 -8 81 5.5t46 49.5l-12 -2t-11 -1q-37 0 -62 25t-25 60q0 41 28.5 66.5t76.5 25.5q51 0 83.5 -33t32.5 -95z" />
    <glyph glyph-name="quotesinglbase" unicode="&#x201a;" horiz-adv-x="274" 
d="M256 85q0 -46 -20 -83.5t-53.5 -62.5t-76.5 -35.5t-88 -2.5v83q47 -8 81 5.5t46 49.5q-5 -1 -11 -2t-11 -1q-37 0 -62.5 25t-25.5 60q0 41 28.5 66.5t76.5 25.5q51 0 83.5 -33t32.5 -95z" />
    <glyph glyph-name="quotedblleft" unicode="&#x201c;" horiz-adv-x="542" 
d="M18 536q0 46 20 83.5t53.5 62.5t76.5 35.5t88 2.5v-83q-47 8 -81 -5.5t-46 -49.5q6 2 12 2.5t11 0.5q38 0 62.5 -25t24.5 -60q0 -40 -28.5 -66t-76.5 -26q-51 0 -83.5 33.5t-32.5 94.5zM286 536q0 46 20 83.5t53.5 62.5t76.5 35.5t88 2.5v-83q-47 8 -81 -5.5t-46 -49.5
q6 2 12 2.5t11 0.5q38 0 62.5 -25t24.5 -60q0 -40 -28.5 -66t-76.5 -26q-51 0 -83.5 33.5t-32.5 94.5z" />
    <glyph glyph-name="quotedblright" unicode="&#x201d;" horiz-adv-x="542" 
d="M256 597q0 -46 -20 -83.5t-53.5 -62.5t-76.5 -35.5t-88 -2.5v83q47 -8 81 5.5t46 49.5l-12 -2t-11 -1q-37 0 -62 25t-25 60q0 41 28.5 66.5t76.5 25.5q51 0 83.5 -33t32.5 -95zM524 597q0 -46 -20 -83.5t-53.5 -62.5t-76.5 -35.5t-88 -2.5v83q47 -8 81 5.5t46 49.5
l-12 -2t-11 -1q-37 0 -62 25t-25 60q0 41 28.5 66.5t76.5 25.5q51 0 83.5 -33t32.5 -95z" />
    <glyph glyph-name="quotedblbase" unicode="&#x201e;" horiz-adv-x="542" 
d="M256 85q0 -46 -20 -83.5t-53.5 -62.5t-76.5 -35.5t-88 -2.5v83q47 -8 81 5.5t46 49.5q-5 -1 -11 -2t-11 -1q-37 0 -62.5 25t-25.5 60q0 41 28.5 66.5t76.5 25.5q51 0 83.5 -33t32.5 -95zM524 85q0 -46 -20 -83.5t-53.5 -62.5t-76.5 -35.5t-88 -2.5v83q47 -8 81 5.5
t46 49.5q-5 -1 -11 -2t-11 -1q-37 0 -62.5 25t-25.5 60q0 41 28.5 66.5t76.5 25.5q51 0 83.5 -33t32.5 -95z" />
    <glyph glyph-name="dagger" unicode="&#x2020;" horiz-adv-x="660" 
d="M411 -193h-162v592h-169v150h169v169h162v-169h169v-150h-169v-592z" />
    <glyph glyph-name="daggerdbl" unicode="&#x2021;" horiz-adv-x="660" 
d="M411 -193h-162v169h-169v150h169v273h-169v150h169v169h162v-169h169v-150h-169v-273h169v-150h-169v-169z" />
    <glyph glyph-name="bullet" unicode="&#x2022;" 
d="M438 263q0 -54 -24.5 -96t-67 -66.5t-97.5 -24.5q-54 0 -96 24.5t-66.5 66.5t-24.5 96q0 56 24.5 99t66.5 67.5t96 24.5q55 0 97.5 -24.5t67 -67.5t24.5 -99z" />
    <glyph glyph-name="ellipsis" unicode="&#x2026;" horiz-adv-x="905" 
d="M241 104q0 -48 -30 -78.5t-78 -30.5t-78.5 30.5t-30.5 78.5q0 49 30.5 79.5t78.5 30.5t78 -30.5t30 -79.5zM561 104q0 -48 -30 -78.5t-78 -30.5t-78.5 30.5t-30.5 78.5q0 49 30.5 79.5t78.5 30.5t78 -30.5t30 -79.5zM881 104q0 -48 -30 -78.5t-78 -30.5t-78.5 30.5
t-30.5 78.5q0 49 30.5 79.5t78.5 30.5t78 -30.5t30 -79.5z" />
    <glyph glyph-name="perthousand" unicode="&#x2030;" horiz-adv-x="1612" 
d="M245 262q-64 0 -115.5 28.5t-81.5 76.5t-30 105q0 58 30 105.5t81.5 76t115.5 28.5t115.5 -28.5t81.5 -76t30 -105.5q0 -57 -30 -105t-81.5 -76.5t-115.5 -28.5zM245 383q24 0 44 9.5t32 29.5t12 50q0 31 -12 50.5t-32 29t-44 9.5q-23 0 -43.5 -9.5t-33 -29t-12.5 -50.5
q0 -30 12.5 -50t33 -29.5t43.5 -9.5zM431 0h-135l386 676h135zM889 -9q-64 0 -115.5 28.5t-81.5 76.5t-30 105q0 58 30 105.5t81.5 76t115.5 28.5t115.5 -28.5t81.5 -76t30 -105.5q0 -57 -30 -105t-81.5 -76.5t-115.5 -28.5zM889 112q24 0 44 9.5t32 29.5t12 50
q0 31 -12 50.5t-32 29t-44 9.5q-23 0 -43.5 -9.5t-33 -29t-12.5 -50.5q0 -30 12.5 -50t33 -29.5t43.5 -9.5zM1367 -9q-64 0 -115.5 28.5t-81.5 76.5t-30 105q0 58 30 105.5t81.5 76t115.5 28.5t115.5 -28.5t81.5 -76t30 -105.5q0 -57 -30 -105t-81.5 -76.5t-115.5 -28.5z
M1367 112q24 0 44 9.5t32 29.5t12 50q0 31 -12 50.5t-32 29t-44 9.5q-23 0 -43.5 -9.5t-33 -29t-12.5 -50.5q0 -30 12.5 -50t33 -29.5t43.5 -9.5z" />
    <glyph glyph-name="guilsinglleft" unicode="&#x2039;" horiz-adv-x="358" 
d="M348 62h-190l-148 205l148 205h190l-138 -205z" />
    <glyph glyph-name="guilsinglright" unicode="&#x203a;" horiz-adv-x="358" 
d="M10 472h190l148 -205l-148 -205h-190l138 205z" />
    <glyph glyph-name="fraction" unicode="&#x2044;" horiz-adv-x="233" 
d="M-4 0h-135l386 676h135z" />
    <glyph glyph-name="zero.superior" unicode="&#x2070;" horiz-adv-x="418" 
d="M390 717q0 -100 -47 -154t-134 -54q-88 0 -134.5 54t-46.5 154q0 101 47.5 155.5t133.5 54.5t133.5 -54.5t47.5 -155.5zM142 717q0 -52 17 -80t50 -28q67 0 67 108q0 53 -17.5 81.5t-49.5 28.5t-49.5 -28.5t-17.5 -81.5z" />
    <glyph glyph-name="four.superior" unicode="&#x2074;" horiz-adv-x="413" 
d="M401 584h-65v-69h-111v69h-213v84l234 253h90v-240h65v-97zM140 681h85v91z" />
    <glyph glyph-name="five.superior" unicode="&#x2075;" horiz-adv-x="397" 
d="M381 651q0 -32 -19 -65t-58.5 -55t-100.5 -22q-50 0 -90.5 17.5t-64.5 48.5t-26 71h112q5 -19 23 -28t46 -9q37 0 50 15t13 28q0 14 -14.5 29.5t-52.5 15.5q-25 0 -43 -8.5t-26 -27.5l-92 31l40 229h276v-100h-196l-9 -42q16 6 33.5 9.5t35.5 3.5q57 0 93 -21t53 -53.5
t17 -66.5z" />
    <glyph glyph-name="six.superior" unicode="&#x2076;" horiz-adv-x="408" 
d="M386 655q0 -43 -25.5 -75.5t-67 -50.5t-90.5 -18q-53 0 -94 19t-64 50.5t-23 66.5q0 42 14.5 71.5t44.5 60.5l136 143h126l-127 -136h4h4q43 0 80 -14.5t59.5 -43.5t22.5 -73zM270 651q0 27 -19.5 37.5t-45.5 10.5q-25 0 -46 -10.5t-21 -37.5q0 -25 21 -35.5t46 -10.5
q26 0 45.5 10.5t19.5 35.5z" />
    <glyph glyph-name="seven.superior" unicode="&#x2077;" horiz-adv-x="343" 
d="M335 855l-163 -340h-119l156 306h-201v100h327v-66z" />
    <glyph glyph-name="eight.superior" unicode="&#x2078;" horiz-adv-x="413" 
d="M387 637q0 -55 -49 -91t-131 -36t-131.5 36t-49.5 91q0 30 19 52t49 37q-24 14 -39 33t-15 46q0 51 45.5 86.5t121.5 35.5q75 0 120.5 -35.5t45.5 -86.5q0 -26 -15 -45.5t-38 -33.5q29 -15 48 -37t19 -52zM155 801q0 -15 13.5 -24t38.5 -9t38.5 9t13.5 24q0 18 -13.5 28
t-38.5 10t-38.5 -10t-13.5 -28zM141 640q0 -20 17.5 -31.5t48.5 -11.5t48.5 11.5t17.5 31.5q0 17 -17.5 28.5t-48.5 11.5t-48.5 -11.5t-17.5 -28.5z" />
    <glyph glyph-name="nine.superior" unicode="&#x2079;" horiz-adv-x="408" 
d="M22 783q0 44 25.5 76t67 50t90.5 18q54 0 94.5 -19t63.5 -50t23 -67q0 -43 -14.5 -71.5t-44.5 -60.5l-136 -143h-126l127 136h-4h-4q-43 0 -80 14.5t-59.5 43.5t-22.5 73zM138 787q0 -27 20 -37.5t45 -10.5q26 0 46.5 10.5t20.5 37.5q0 26 -20.5 36t-46.5 10
q-25 0 -45 -10t-20 -36z" />
    <glyph glyph-name="zero.inferior" unicode="&#x2080;" horiz-adv-x="418" 
d="M390 -1q0 -100 -47 -154t-134 -54q-88 0 -134.5 54t-46.5 154q0 101 47.5 155.5t133.5 54.5t133.5 -54.5t47.5 -155.5zM142 -1q0 -52 17 -80t50 -28q67 0 67 108q0 53 -17.5 81.5t-49.5 28.5t-49.5 -28.5t-17.5 -81.5z" />
    <glyph glyph-name="one.inferior" unicode="&#x2081;" horiz-adv-x="251" 
d="M209 -203h-112v309h-84v97h196v-406z" />
    <glyph glyph-name="two.inferior" unicode="&#x2082;" horiz-adv-x="385" 
d="M363 -103v-100h-334l1 63l135 114q36 30 55 50.5t19 43.5q0 17 -14.5 29t-42.5 12t-43.5 -12t-15.5 -38h-108q0 44 22.5 78t62 53t90.5 19q54 0 90.5 -18.5t55.5 -47.5t19 -59q0 -27 -10 -49.5t-33.5 -46.5t-62.5 -57l-41 -34h155z" />
    <glyph glyph-name="three.inferior" unicode="&#x2083;" horiz-adv-x="407" 
d="M381 -77q0 -59 -50 -95t-131 -36q-76 0 -125 36.5t-49 93.5h109q2 -21 19.5 -32t46.5 -11q31 0 48 11t17 30q0 20 -20 30t-58 10h-51v88h44q32 0 48.5 9t16.5 27t-13.5 27.5t-38.5 9.5t-38.5 -11.5t-13.5 -31.5h-108q0 37 22 66.5t59.5 47t83.5 17.5q76 0 119 -32.5
t43 -82.5q0 -25 -15 -45.5t-44 -37.5q38 -13 58.5 -35t20.5 -53z" />
    <glyph glyph-name="four.inferior" unicode="&#x2084;" horiz-adv-x="413" 
d="M401 -134h-65v-69h-111v69h-213v84l234 253h90v-240h65v-97zM140 -37h85v91z" />
    <glyph glyph-name="five.inferior" unicode="&#x2085;" horiz-adv-x="397" 
d="M381 -67q0 -32 -19 -65t-58.5 -55t-100.5 -22q-50 0 -90.5 17.5t-64.5 48.5t-26 71h112q5 -19 23 -28t46 -9q37 0 50 15t13 28q0 14 -14.5 29.5t-52.5 15.5q-25 0 -43 -8.5t-26 -27.5l-92 31l40 229h276v-100h-196l-9 -42q16 6 33.5 9.5t35.5 3.5q57 0 93 -21t53 -53.5
t17 -66.5z" />
    <glyph glyph-name="six.inferior" unicode="&#x2086;" horiz-adv-x="408" 
d="M386 -63q0 -43 -25.5 -75.5t-67 -50.5t-90.5 -18q-53 0 -94 19t-64 50.5t-23 66.5q0 42 14.5 71.5t44.5 60.5l136 143h126l-127 -136h4h4q43 0 80 -14.5t59.5 -43.5t22.5 -73zM270 -67q0 27 -19.5 37.5t-45.5 10.5q-25 0 -46 -10.5t-21 -37.5q0 -25 21 -35.5t46 -10.5
q26 0 45.5 10.5t19.5 35.5z" />
    <glyph glyph-name="seven.inferior" unicode="&#x2087;" horiz-adv-x="343" 
d="M335 137l-163 -340h-119l156 306h-201v100h327v-66z" />
    <glyph glyph-name="eight.inferior" unicode="&#x2088;" horiz-adv-x="413" 
d="M387 -81q0 -55 -49 -91t-131 -36t-131.5 36t-49.5 91q0 30 19 52t49 37q-24 14 -39 33t-15 46q0 51 45.5 86.5t121.5 35.5q75 0 120.5 -35.5t45.5 -86.5q0 -26 -15 -45.5t-38 -33.5q29 -15 48 -37t19 -52zM155 83q0 -15 13.5 -24t38.5 -9t38.5 9t13.5 24q0 18 -13.5 28
t-38.5 10t-38.5 -10t-13.5 -28zM141 -78q0 -20 17.5 -31.5t48.5 -11.5t48.5 11.5t17.5 31.5q0 17 -17.5 28.5t-48.5 11.5t-48.5 -11.5t-17.5 -28.5z" />
    <glyph glyph-name="nine.inferior" unicode="&#x2089;" horiz-adv-x="408" 
d="M22 65q0 44 25.5 76t67 50t90.5 18q54 0 94.5 -19t63.5 -50t23 -67q0 -43 -14.5 -71.5t-44.5 -60.5l-136 -143h-126l127 136h-4h-4q-43 0 -80 14.5t-59.5 43.5t-22.5 73zM138 69q0 -27 20 -37.5t45 -10.5q26 0 46.5 10.5t20.5 37.5q0 26 -20.5 36t-46.5 10q-25 0 -45 -10
t-20 -36z" />
    <glyph glyph-name="Euro" unicode="&#x20ac;" horiz-adv-x="620" 
d="M594 175v-157q-30 -14 -64.5 -21t-80.5 -7q-115 0 -199 60t-116 166h-108v100h92q0 10 -0.5 17t0 14.5t0.5 18.5h-92v100h109q33 104 116 162t198 58q89 0 145 -23v-161q-55 30 -128 30q-47 0 -84.5 -17t-60.5 -49h186v-100h-222q0 -10 -0.5 -18t0 -15.5t0.5 -16.5h222
v-100h-189q24 -34 62.5 -52.5t85.5 -18.5q35 0 70.5 8.5t57.5 21.5z" />
    <glyph glyph-name="indianrupee" unicode="&#x20b9;" horiz-adv-x="640" 
d="M614 397h-103q-11 -55 -48 -93.5t-89 -58.5l167 -245h-190l-141 226h-174v120h185q43 0 70 13.5t40 37.5h-295v110h294q-13 23 -40 36t-69 13h-185v120h578v-110h-152q14 -13 24.5 -28t16.5 -31h111v-110z" />
    <glyph glyph-name="turkishlira" unicode="&#x20ba;" horiz-adv-x="639" 
d="M465 281h159q-6 -88 -53.5 -153t-124.5 -101t-172 -36q-39 0 -71 3.5t-61 13.5v238l-116 -28v108l116 28v50l-116 -28v108l116 28v164h173v-123l206 50v-108l-206 -50v-50l206 50v-108l-206 -50v-149q43 3 75 20.5t51.5 48.5t23.5 74z" />
    <glyph glyph-name="ruble" unicode="&#x20bd;" horiz-adv-x="660" 
d="M614 119h-285v-119h-173v119h-130v110h130v50h-130v110h130v287h237q75 0 129 -21.5t83 -64.5t29 -107t-31.5 -109.5t-89.5 -70t-140 -24.5h-44v-50h285v-110zM372 554h-43v-165h48q51 0 72 23t21 60q0 40 -22 61t-76 21z" />
    <glyph glyph-name="trademark" unicode="&#x2122;" horiz-adv-x="887" 
d="M230 366h-110v251h-105v101h320v-101h-105v-251zM543 366l-76 232v-232h-104v352h165l66 -216l67 216h156v-352h-104v229l-75 -229h-95z" />
    <glyph glyph-name="estimated" unicode="&#x212e;" horiz-adv-x="833" 
d="M705 136h42q-55 -74 -137.5 -110t-181.5 -36q-88 0 -162 28.5t-128 79t-83.5 117t-29.5 143.5q0 71 29.5 137t83 118t125 82.5t154.5 30.5q113 0 198.5 -48.5t136 -134t56.5 -196.5h-613q-21 0 -21 -22v-169q0 -30 21.5 -55.5t58 -44t82 -29t92.5 -10.5q95 0 167 30.5
t110 88.5zM174 569v-175q0 -22 21 -22h444q20 0 20 22v169q0 36 -34.5 67t-89.5 50.5t-118 19.5q-46 0 -89.5 -11t-78.5 -29.5t-55 -42t-20 -48.5z" />
    <glyph glyph-name="partialdiff" unicode="&#x2202;" horiz-adv-x="617" 
d="M22 260q0 71 34.5 128t95.5 90.5t140 33.5h7h7l-157 206h194l156 -206q35 -45 56 -83.5t30.5 -78t9.5 -90.5t-20.5 -99t-58.5 -87t-90.5 -61.5t-116.5 -22.5q-85 0 -150 36.5t-101 98t-36 135.5zM199 262q0 -60 33 -89t76 -29q42 0 75 29t33 89q0 40 -15.5 66t-40 39
t-52.5 13q-43 0 -76 -29t-33 -89z" />
    <glyph glyph-name="increment" unicode="&#x2206;" horiz-adv-x="739" 
d="M733 0h-727l267 718h195zM365 525l-128 -377h254z" />
    <glyph glyph-name="product" unicode="&#x220f;" horiz-adv-x="774" 
d="M248 -193h-178v911h634v-911h-178v757h-278v-757z" />
    <glyph glyph-name="summation" unicode="&#x2211;" horiz-adv-x="666" 
d="M628 -193h-590v142l272 319l-263 305v145h581v-154h-361l253 -297l-265 -306h373v-154z" />
    <glyph glyph-name="minus" unicode="&#x2212;" horiz-adv-x="660" 
d="M580 269h-500v150h500v-150z" />
    <glyph glyph-name="divisionslash" unicode="&#x2215;" horiz-adv-x="660" 
d="M283 0h-160l254 676h160z" />
    <glyph glyph-name="bulletoperator" unicode="&#x2219;" horiz-adv-x="660" 
d="M439 340q0 -48 -30.5 -78.5t-78.5 -30.5t-78.5 30.5t-30.5 78.5q0 49 30.5 79.5t78.5 30.5t78.5 -30.5t30.5 -79.5z" />
    <glyph glyph-name="radical" unicode="&#x221a;" horiz-adv-x="862" 
d="M861 718l-326 -911h-195l-142 390h-118v154h254l108 -338l240 705h179z" />
    <glyph glyph-name="infinity" unicode="&#x221e;" horiz-adv-x="1101" 
d="M1079 269q0 -81 -34 -144t-95 -99t-143 -36q-59 0 -106 19t-84 50.5t-67 68.5q-29 -37 -66 -68.5t-84 -50.5t-107 -19q-81 0 -142 36t-95 99t-34 144t34 144t95 99t142 36q60 0 107 -19t84 -50t67 -68q29 37 66 68t84 50t106 19q82 0 143 -36t95 -99t34 -144zM201 269
q0 -37 14 -65.5t40 -44.5t62 -16q34 0 62 19t51 48t40 59q-17 31 -40 59.5t-51 47.5t-62 19q-36 0 -62 -16t-40 -44t-14 -66zM631 269q17 -30 39.5 -59t51.5 -48t62 -19q37 0 62.5 16t39.5 44.5t14 65.5q0 38 -14 66t-39.5 44t-62.5 16q-33 0 -62 -19t-51.5 -47.5
t-39.5 -59.5z" />
    <glyph glyph-name="integral" unicode="&#x222b;" 
d="M335 534v-519q0 -78 -30.5 -126t-81.5 -70t-112 -22q-20 0 -40 3t-40 8v161q11 -7 26 -10t32 -3q30 0 51.5 16t21.5 57v510q0 68 29 109.5t76.5 60.5t101.5 19q23 0 48 -4t52 -15v-129q-13 8 -30 11.5t-33 3.5q-24 0 -47.5 -14t-23.5 -47z" />
    <glyph glyph-name="approxequal" unicode="&#x2248;" horiz-adv-x="660" 
d="M451 353q-37 0 -70.5 11t-62.5 25t-52 25t-40 11q-20 0 -29 -16t-7 -60h-139q-12 67 5.5 119t58 81.5t95.5 29.5q36 0 69.5 -11t62.5 -25t53 -25t40 -11q21 0 29.5 16t6.5 60h139q13 -67 -5 -119t-58 -81.5t-96 -29.5zM451 105q-37 0 -70.5 11t-62.5 25t-52 25t-40 11
q-20 0 -29 -16t-7 -60h-139q-12 67 5.5 119t58 81.5t95.5 29.5q36 0 69.5 -11t62.5 -25t53 -25t40 -11q21 0 29.5 16t6.5 60h139q13 -67 -5 -119t-58 -81.5t-96 -29.5z" />
    <glyph glyph-name="notequal" unicode="&#x2260;" horiz-adv-x="660" 
d="M177 145h-97v150h154l37 98h-191v150h247l50 133h160l-50 -133h93v-150h-149l-37 -98h186v-150h-243l-54 -145h-160z" />
    <glyph glyph-name="lessequal" unicode="&#x2264;" horiz-adv-x="660" 
d="M580 0h-500v150h500v-150zM80 503l500 196v-149l-328 -115l328 -115v-149l-500 196v136z" />
    <glyph glyph-name="greaterequal" unicode="&#x2265;" horiz-adv-x="660" 
d="M580 0h-500v150h500v-150zM580 367l-500 -196v149l328 115l-328 115v149l500 -196v-136z" />
    <glyph glyph-name="lozenge" unicode="&#x25ca;" horiz-adv-x="740" 
d="M468 -193h-195l-169 456l169 455h195l168 -455zM276 263l89 -263l88 263l-88 262z" />
    <glyph glyph-name="ITF" unicode="&#xf8ff;" horiz-adv-x="1739" 
d="M60 0v700h216v-700h-216zM321 496v204h216v-204h-216zM581 0v700h217v-700h-217zM842 496v204h216v-204h-216zM1102 0v700h217v-700h-217zM1363 496v204h216v-204h-216zM1363 247v205h216v-205h-216z" />
    <glyph glyph-name="Q.ss02" horiz-adv-x="797" 
d="M320 -138v477h155v-477h-155zM398 -15q-78 0 -145 27.5t-117.5 78t-79 119t-28.5 150.5t28.5 150t79 118t117.5 77.5t145 27.5t145.5 -27.5t118 -77.5t79 -118t28.5 -150t-28.5 -150.5t-79 -119t-118 -78t-145.5 -27.5zM398 154q42 0 75 16t55.5 44.5t34 66t11.5 79.5
t-11.5 79t-34 65t-55.5 44t-75 16t-75 -16t-55.5 -44t-34 -65t-11.5 -79t11.5 -79.5t34 -66t55.5 -44.5t75 -16z" />
    <glyph glyph-name="zero.case" horiz-adv-x="685" 
d="M343 727q140 0 216.5 -95.5t76.5 -274.5q0 -177 -75.5 -272.5t-217.5 -95.5t-218 95.5t-76 272.5q0 179 77 274.5t217 95.5zM343 574q-57 0 -87.5 -56.5t-30.5 -160.5t30 -159t88 -55q56 0 86.5 55t30.5 159q0 105 -30.5 161t-86.5 56z" />
    <glyph glyph-name="one.case" horiz-adv-x="413" 
d="M333 0h-172v569h-139v149h311v-718z" />
    <glyph glyph-name="two.case" horiz-adv-x="618" 
d="M582 154v-154h-537v98l223 211q55 52 88.5 91.5t33.5 87.5q0 24 -11 43.5t-33 31t-55 11.5q-32 0 -55 -11t-35 -33.5t-12 -56.5h-167q0 75 36.5 132.5t100 89.5t145.5 32q86 0 145 -31.5t89.5 -80.5t30.5 -103q0 -52 -19.5 -93.5t-56.5 -83.5t-92 -94l-91 -87h272z" />
    <glyph glyph-name="three.case" horiz-adv-x="636" 
d="M307 -10q-81 0 -144.5 29t-100 80t-36.5 116h167q4 -42 34.5 -66t81.5 -24q55 0 85 23.5t30 64.5t-35.5 63.5t-100.5 22.5h-82v135h73q36 0 60.5 9t37.5 27t13 43t-11 42.5t-31.5 27t-49.5 9.5q-43 0 -67.5 -24t-24.5 -65h-167q1 64 36.5 114.5t96 80t135.5 29.5
q81 0 139.5 -25.5t89.5 -70.5t31 -104q0 -46 -26.5 -83.5t-77.5 -66.5q65 -22 101 -63t36 -97q0 -67 -37 -118.5t-102.5 -80t-153.5 -28.5z" />
    <glyph glyph-name="four.case" horiz-adv-x="674" 
d="M646 132h-106v-132h-170v132h-352v128l384 458h138v-437h106v-149zM206 281h164v198z" />
    <glyph glyph-name="five.case" horiz-adv-x="632" 
d="M318 -11q-81 0 -146.5 30.5t-104 83.5t-41.5 121h172q5 -26 21 -44.5t41 -27.5t57 -9q43 0 67 14.5t34.5 36.5t10.5 44t-11.5 44t-37.5 37t-69 15q-42 0 -72.5 -16t-44.5 -51l-142 47l66 404h443v-154h-319l-18 -109q27 14 56.5 20t60.5 6q92 0 150.5 -36t86.5 -91.5
t28 -116.5q0 -44 -17.5 -88t-53.5 -80t-90 -58t-127 -22z" />
    <glyph glyph-name="six.case" horiz-adv-x="649" 
d="M324 -9q-87 0 -153 33.5t-103.5 88t-37.5 117.5q0 51 11.5 89t33 71.5t52.5 69.5l224 258h194l-209 -244h7h7q80 0 140.5 -30t94.5 -82t34 -120q0 -69 -37.5 -126t-103.5 -91t-154 -34zM326 135q30 0 56 11t42.5 33.5t16.5 56.5q0 37 -16.5 59.5t-42.5 33.5t-56 11
t-57 -10.5t-43.5 -33.5t-16.5 -60q0 -34 16.5 -56.5t43.5 -33.5t57 -11z" />
    <glyph glyph-name="seven.case" horiz-adv-x="551" 
d="M541 617l-270 -617h-183l262 564h-340v154h531v-101z" />
    <glyph glyph-name="eight.case" horiz-adv-x="657" 
d="M621 211q0 -63 -36.5 -113t-101.5 -79t-153 -29q-89 0 -155 29t-102.5 79t-36.5 113q0 38 15 68t41.5 53.5t60.5 40.5q-28 16 -48.5 37t-32.5 48t-12 59q0 60 33.5 107.5t94.5 75t142 27.5q80 0 140.5 -27.5t94 -75t33.5 -107.5q0 -49 -26 -84.5t-67 -59.5
q34 -17 60 -40.5t41 -53.5t15 -68zM237 511q0 -34 25 -54t68 -20t67 20t24 54q0 38 -24 59.5t-67 21.5t-68 -21.5t-25 -59.5zM213 215q0 -28 14 -48t40 -31t63 -11q36 0 62 11t40 31t14 48q0 26 -14 45.5t-40 30.5t-62 11q-37 0 -63 -11t-40 -30.5t-14 -45.5z" />
    <glyph glyph-name="nine.case" horiz-adv-x="649" 
d="M326 727q87 0 153 -33t103 -87.5t37 -118.5q0 -44 -9 -80.5t-30 -72t-58 -77.5l-224 -258h-193l208 245h-8h-9q-78 0 -138 30t-94 82t-34 119q0 70 37.5 126.5t104 90.5t154.5 34zM324 583q-30 0 -56.5 -11t-43 -33t-16.5 -57q0 -36 16.5 -58.5t43 -33.5t56.5 -11
t56.5 10.5t43 33.5t16.5 59q0 35 -16.5 57t-43 33t-56.5 11z" />
    <glyph glyph-name="zero.dnom" horiz-adv-x="426" 
d="M394 202q0 -100 -47 -154t-134 -54q-88 0 -134.5 54t-46.5 154q0 101 47.5 155.5t133.5 54.5t133.5 -54.5t47.5 -155.5zM146 202q0 -52 17 -80t50 -28q67 0 67 108q0 53 -17.5 81.5t-49.5 28.5t-49.5 -28.5t-17.5 -81.5z" />
    <glyph glyph-name="one.dnom" horiz-adv-x="251" 
d="M209 0h-112v309h-84v97h196v-406z" />
    <glyph glyph-name="two.dnom" horiz-adv-x="385" 
d="M363 100v-100h-334l1 63l135 114q36 30 55 50.5t19 43.5q0 17 -14.5 29t-42.5 12t-43.5 -12t-15.5 -38h-108q0 44 22.5 78t62 53t90.5 19q54 0 90.5 -18.5t55.5 -47.5t19 -59q0 -27 -10 -49.5t-33.5 -46.5t-62.5 -57l-41 -34h155z" />
    <glyph glyph-name="three.dnom" horiz-adv-x="407" 
d="M381 126q0 -59 -50 -95t-131 -36q-76 0 -125 36.5t-49 93.5h109q2 -21 19.5 -32t46.5 -11q31 0 48 11t17 30q0 20 -20 30t-58 10h-51v88h44q32 0 48.5 9t16.5 27t-13.5 27.5t-38.5 9.5t-38.5 -11.5t-13.5 -31.5h-108q0 37 22 66.5t59.5 47t83.5 17.5q76 0 119 -32.5
t43 -82.5q0 -25 -15 -45.5t-44 -37.5q38 -13 58.5 -35t20.5 -53z" />
    <glyph glyph-name="four.dnom" horiz-adv-x="413" 
d="M401 69h-65v-69h-111v69h-213v84l234 253h90v-240h65v-97zM140 166h85v91z" />
    <glyph glyph-name="five.dnom" horiz-adv-x="397" 
d="M381 136q0 -32 -19 -65t-58.5 -55t-100.5 -22q-50 0 -90.5 17.5t-64.5 48.5t-26 71h112q5 -19 23 -28t46 -9q37 0 50 15t13 28q0 14 -14.5 29.5t-52.5 15.5q-25 0 -43 -8.5t-26 -27.5l-92 31l40 229h276v-100h-196l-9 -42q16 6 33.5 9.5t35.5 3.5q57 0 93 -21t53 -53.5
t17 -66.5z" />
    <glyph glyph-name="six.dnom" horiz-adv-x="408" 
d="M386 140q0 -43 -25.5 -75.5t-67 -50.5t-90.5 -18q-53 0 -94 19t-64 50.5t-23 66.5q0 42 14.5 71.5t44.5 60.5l136 143h126l-127 -136h4h4q43 0 80 -14.5t59.5 -43.5t22.5 -73zM270 136q0 27 -19.5 37.5t-45.5 10.5q-25 0 -46 -10.5t-21 -37.5q0 -25 21 -35.5t46 -10.5
q26 0 45.5 10.5t19.5 35.5z" />
    <glyph glyph-name="seven.dnom" horiz-adv-x="343" 
d="M335 340l-163 -340h-119l156 306h-201v100h327v-66z" />
    <glyph glyph-name="eight.dnom" horiz-adv-x="413" 
d="M387 122q0 -55 -49 -91t-131 -36t-131.5 36t-49.5 91q0 30 19 52t49 37q-24 14 -39 33t-15 46q0 51 45.5 86.5t121.5 35.5q75 0 120.5 -35.5t45.5 -86.5q0 -26 -15 -45.5t-38 -33.5q29 -15 48 -37t19 -52zM155 286q0 -15 13.5 -24t38.5 -9t38.5 9t13.5 24q0 18 -13.5 28
t-38.5 10t-38.5 -10t-13.5 -28zM141 125q0 -20 17.5 -31.5t48.5 -11.5t48.5 11.5t17.5 31.5q0 17 -17.5 28.5t-48.5 11.5t-48.5 -11.5t-17.5 -28.5z" />
    <glyph glyph-name="nine.dnom" horiz-adv-x="408" 
d="M22 268q0 44 25.5 76t67 50t90.5 18q54 0 94.5 -19t63.5 -50t23 -67q0 -43 -14.5 -71.5t-44.5 -60.5l-136 -143h-126l127 136h-4h-4q-43 0 -80 14.5t-59.5 43.5t-22.5 73zM138 272q0 -27 20 -37.5t45 -10.5q26 0 46.5 10.5t20.5 37.5q0 26 -20.5 36t-46.5 10
q-25 0 -45 -10t-20 -36z" />
    <glyph glyph-name="zero.numr_alt" horiz-adv-x="470" 
d="M239 262q-64 0 -115.5 28.5t-81.5 76.5t-30 105q0 58 30 105.5t81.5 76t115.5 28.5t115.5 -28.5t81.5 -76t30 -105.5q0 -57 -30 -105t-81.5 -76.5t-115.5 -28.5zM239 383q24 0 44 9.5t32 29.5t12 50q0 31 -12 50.5t-32 29t-44 9.5q-23 0 -43.5 -9.5t-33 -29t-12.5 -50.5
q0 -30 12.5 -50t33 -29.5t43.5 -9.5z" />
    <glyph glyph-name="zero.numr" horiz-adv-x="418" 
d="M390 472q0 -100 -47 -154t-134 -54q-88 0 -134.5 54t-46.5 154q0 101 47.5 155.5t133.5 54.5t133.5 -54.5t47.5 -155.5zM142 472q0 -52 17 -80t50 -28q67 0 67 108q0 53 -17.5 81.5t-49.5 28.5t-49.5 -28.5t-17.5 -81.5z" />
    <glyph glyph-name="one.numr" horiz-adv-x="251" 
d="M209 270h-112v309h-84v97h196v-406z" />
    <glyph glyph-name="two.numr" horiz-adv-x="385" 
d="M363 370v-100h-334l1 63l135 114q36 30 55 50.5t19 43.5q0 17 -14.5 29t-42.5 12t-43.5 -12t-15.5 -38h-108q0 44 22.5 78t62 53t90.5 19q54 0 90.5 -19t55.5 -47.5t19 -58.5q0 -27 -10 -49.5t-33.5 -46.5t-62.5 -57l-41 -34h155z" />
    <glyph glyph-name="three.numr" horiz-adv-x="407" 
d="M381 397q0 -59 -50 -95t-131 -36q-76 0 -125 36.5t-49 93.5h109q2 -21 19.5 -32t46.5 -11q31 0 48 11t17 30q0 20 -20 30t-58 10h-51v88h44q32 0 48.5 9t16.5 27t-13.5 27.5t-38.5 9.5t-38.5 -11.5t-13.5 -31.5h-108q0 37 22 66.5t59.5 47t83.5 17.5q76 0 119 -32.5
t43 -82.5q0 -25 -15 -45.5t-44 -37.5q38 -13 58.5 -35t20.5 -53z" />
    <glyph glyph-name="four.numr" horiz-adv-x="413" 
d="M401 339h-65v-69h-111v69h-213v84l234 253h90v-240h65v-97zM140 436h85v91z" />
    <glyph glyph-name="five.numr" horiz-adv-x="397" 
d="M381 406q0 -32 -19 -65t-58.5 -55t-100.5 -22q-50 0 -90.5 17.5t-64.5 48.5t-26 71h112q5 -19 23 -28t46 -9q37 0 50 15t13 28q0 14 -14.5 29.5t-52.5 15.5q-25 0 -43 -8.5t-26 -27.5l-92 31l40 229h276v-100h-196l-9 -42q16 6 33.5 9.5t35.5 3.5q57 0 93 -21t53 -53.5
t17 -66.5z" />
    <glyph glyph-name="six.numr" horiz-adv-x="408" 
d="M386 410q0 -43 -25.5 -75.5t-67 -50.5t-90.5 -18q-53 0 -94 19t-64 50.5t-23 66.5q0 42 14.5 71.5t44.5 60.5l136 143h126l-127 -136h4h4q43 0 80 -14.5t59.5 -43.5t22.5 -73zM270 406q0 27 -19.5 37.5t-45.5 10.5q-25 0 -46 -10.5t-21 -37.5q0 -25 21 -35.5t46 -10.5
q26 0 45.5 10.5t19.5 35.5z" />
    <glyph glyph-name="seven.numr" horiz-adv-x="343" 
d="M335 610l-163 -340h-119l156 306h-201v100h327v-66z" />
    <glyph glyph-name="eight.numr" horiz-adv-x="413" 
d="M387 392q0 -55 -49 -91t-131 -36t-131.5 36t-49.5 91q0 30 19 52t49 37q-24 14 -39 33t-15 46q0 51 45.5 86.5t121.5 35.5q75 0 120.5 -35.5t45.5 -86.5q0 -26 -15 -45.5t-38 -33.5q29 -15 48 -37t19 -52zM155 556q0 -15 13.5 -24t38.5 -9t38.5 9t13.5 24q0 18 -13.5 28
t-38.5 10t-38.5 -10t-13.5 -28zM141 395q0 -20 17.5 -31.5t48.5 -11.5t48.5 11.5t17.5 31.5q0 17 -17.5 28.5t-48.5 11.5t-48.5 -11.5t-17.5 -28.5z" />
    <glyph glyph-name="nine.numr" horiz-adv-x="408" 
d="M22 538q0 44 25.5 76t67 50t90.5 18q54 0 94.5 -19t63.5 -50t23 -67q0 -43 -14.5 -71.5t-44.5 -60.5l-136 -143h-126l127 136h-4h-4q-43 0 -80 14.5t-59.5 43.5t-22.5 73zM138 542q0 -27 20 -37.5t45 -10.5q26 0 46.5 10.5t20.5 37.5q0 26 -20.5 36t-46.5 10
q-25 0 -45 -10t-20 -36z" />
    <glyph glyph-name="caroncomb.alt" 
d="M313 560h-113v158h140z" />
    <glyph glyph-name="caroncomb.alt2" 
d="M293 522h-113v196h140z" />
    <glyph glyph-name="strokeshortcomb.case" 
d="M457 292h-414v154h414v-154z" />
    <glyph glyph-name="slashshortcomb.case" 
d="M488 348l-475 -111v150l475 110v-149z" />
    <glyph glyph-name="slashlongcomb.case" 
d="M66 0h-167l536 718h166z" />
    <glyph glyph-name="dieresiscomb.narrow" 
d="M460 644q0 -41 -27 -67t-68 -26q-43 0 -70.5 26t-27.5 67q0 43 27.5 69t70.5 26q41 0 68 -26t27 -69zM233 644q0 -41 -27 -67t-71 -26q-41 0 -68 26t-27 67q0 43 27 69t68 26q44 0 71 -26t27 -69z" />
    <glyph glyph-name="gravecomb.narrow" 
d="M393 556h-177l-109 162h197z" />
    <glyph glyph-name="acutecomb.narrow" 
d="M283 556h-176l90 162h196z" />
    <glyph glyph-name="circumflexcomb.narrow" 
d="M201 556h-188l127 162h222l126 -162h-187l-50 74z" />
    <glyph glyph-name="a.ss01" horiz-adv-x="630" 
d="M22 269q0 78 30.5 141.5t86.5 100.5t133 37q50 0 84.5 -15.5t65.5 -49.5v55h157v-538h-157v61q-33 -34 -73 -52.5t-87 -18.5q-72 0 -126 37.5t-84 101t-30 140.5zM200 269q0 -63 32 -94t71 -31q27 0 50.5 14t38 42t14.5 70q0 43 -15 70.5t-38.5 40.5t-49.5 13
q-39 0 -71 -30t-32 -95z" />
    <glyph glyph-name="aacute.ss01" horiz-adv-x="630" 
d="M22 269q0 78 30.5 141.5t86.5 100.5t133 37q50 0 84.5 -15.5t65.5 -49.5v55h157v-538h-157v61q-33 -34 -73 -52.5t-87 -18.5q-72 0 -126 37.5t-84 101t-30 140.5zM200 269q0 -63 32 -94t71 -31q27 0 50.5 14t38 42t14.5 70q0 43 -15 70.5t-38.5 40.5t-49.5 13
q-39 0 -71 -30t-32 -95zM389 571h-176l100 162h197z" />
    <glyph glyph-name="abreve.ss01" horiz-adv-x="630" 
d="M22 269q0 78 30.5 141.5t86.5 100.5t133 37q50 0 84.5 -15.5t65.5 -49.5v55h157v-538h-157v61q-33 -34 -73 -52.5t-87 -18.5q-72 0 -126 37.5t-84 101t-30 140.5zM200 269q0 -63 32 -94t71 -31q27 0 50.5 14t38 42t14.5 70q0 43 -15 70.5t-38.5 40.5t-49.5 13
q-39 0 -71 -30t-32 -95zM366 733h119q0 -77 -50 -122t-137 -45q-88 0 -138 45t-50 122h120q0 -29 18.5 -44.5t49.5 -15.5q32 0 50 15.5t18 44.5z" />
    <glyph glyph-name="acircumflex.ss01" horiz-adv-x="630" 
d="M22 269q0 78 30.5 141.5t86.5 100.5t133 37q50 0 84.5 -15.5t65.5 -49.5v55h157v-538h-157v61q-33 -34 -73 -52.5t-87 -18.5q-72 0 -126 37.5t-84 101t-30 140.5zM200 269q0 -63 32 -94t71 -31q27 0 50.5 14t38 42t14.5 70q0 43 -15 70.5t-38.5 40.5t-49.5 13
q-39 0 -71 -30t-32 -95zM237 571h-188l141 162h217l140 -162h-187l-62 74z" />
    <glyph glyph-name="adieresis.ss01" horiz-adv-x="630" 
d="M22 269q0 78 30.5 141.5t86.5 100.5t133 37q50 0 84.5 -15.5t65.5 -49.5v55h157v-538h-157v61q-33 -34 -73 -52.5t-87 -18.5q-72 0 -126 37.5t-84 101t-30 140.5zM200 269q0 -63 32 -94t71 -31q27 0 50.5 14t38 42t14.5 70q0 43 -15 70.5t-38.5 40.5t-49.5 13
q-39 0 -71 -30t-32 -95zM518 659q0 -41 -28 -67t-70 -26q-44 0 -72 26t-28 67q0 43 28 69t72 26q42 0 70 -26t28 -69zM276 659q0 -41 -27.5 -67t-72.5 -26q-42 0 -70 26t-28 67q0 43 28 69t70 26q45 0 72.5 -26t27.5 -69z" />
    <glyph glyph-name="agrave.ss01" horiz-adv-x="630" 
d="M22 269q0 78 30.5 141.5t86.5 100.5t133 37q50 0 84.5 -15.5t65.5 -49.5v55h157v-538h-157v61q-33 -34 -73 -52.5t-87 -18.5q-72 0 -126 37.5t-84 101t-30 140.5zM200 269q0 -63 32 -94t71 -31q27 0 50.5 14t38 42t14.5 70q0 43 -15 70.5t-38.5 40.5t-49.5 13
q-39 0 -71 -30t-32 -95zM383 571h-176l-121 162h198z" />
    <glyph glyph-name="amacron.ss01" horiz-adv-x="630" 
d="M22 269q0 78 30.5 141.5t86.5 100.5t133 37q50 0 84.5 -15.5t65.5 -49.5v55h157v-538h-157v61q-33 -34 -73 -52.5t-87 -18.5q-72 0 -126 37.5t-84 101t-30 140.5zM200 269q0 -63 32 -94t71 -31q27 0 50.5 14t38 42t14.5 70q0 43 -15 70.5t-38.5 40.5t-49.5 13
q-39 0 -71 -30t-32 -95zM473 583h-349v110h349v-110z" />
    <glyph glyph-name="aogonek.ss01" horiz-adv-x="630" 
d="M22 269q0 78 30.5 141.5t86.5 100.5t133 37q50 0 84.5 -15.5t65.5 -49.5v55h157v-538h-157v61q-33 -34 -73 -52.5t-87 -18.5q-72 0 -126 37.5t-84 101t-30 140.5zM200 269q0 -63 32 -94t71 -31q27 0 50.5 14t38 42t14.5 70q0 43 -15 70.5t-38.5 40.5t-49.5 13
q-39 0 -71 -30t-32 -95zM556 -75v-111q-38 -11 -71 -11q-53 0 -91 26.5t-38 81.5q0 50 38 91t105 96l47 -52q-26 -19 -42.5 -40t-16.5 -44q0 -21 10.5 -32t28.5 -11q14 0 30 6z" />
    <glyph glyph-name="aring.ss01" horiz-adv-x="630" 
d="M22 269q0 78 30.5 141.5t86.5 100.5t133 37q50 0 84.5 -15.5t65.5 -49.5v55h157v-538h-157v61q-33 -34 -73 -52.5t-87 -18.5q-72 0 -126 37.5t-84 101t-30 140.5zM200 269q0 -63 32 -94t71 -31q27 0 50.5 14t38 42t14.5 70q0 43 -15 70.5t-38.5 40.5t-49.5 13
q-39 0 -71 -30t-32 -95zM298 566q-43 0 -76 18t-51 48t-18 65q0 37 18 67t51 48t76 18t76 -18t51.5 -48t18.5 -67q0 -35 -18.5 -65t-51.5 -48t-76 -18zM298 650q20 0 34 11t14 36q0 26 -14 38t-34 12q-18 0 -33.5 -12t-15.5 -38q0 -25 15.5 -36t33.5 -11z" />
    <glyph glyph-name="atilde.ss01" horiz-adv-x="630" 
d="M22 269q0 78 30.5 141.5t86.5 100.5t133 37q50 0 84.5 -15.5t65.5 -49.5v55h157v-538h-157v61q-33 -34 -73 -52.5t-87 -18.5q-72 0 -126 37.5t-84 101t-30 140.5zM200 269q0 -63 32 -94t71 -31q27 0 50.5 14t38 42t14.5 70q0 43 -15 70.5t-38.5 40.5t-49.5 13
q-39 0 -71 -30t-32 -95zM206 566h-103q-9 50 3 87.5t40.5 59t67.5 21.5q25 0 48 -5.5t42 -13.5t34.5 -13.5t25.5 -5.5q12 0 20 9t6 37h103q9 -48 -3.5 -86t-41 -60t-68.5 -22q-25 0 -47.5 5.5t-41.5 13.5t-34 13.5t-26 5.5t-18.5 -8.5t-6.5 -37.5z" />
    </font>
</defs>
</svg>
